<svg width="59" height="59" fill="none" xmlns="http://www.w3.org/2000/svg"><path d="M24.633 44.227a.95.95 0 00-1.343 0l-3.287 3.287a.6.6 0 01-.848 0l-7.67-7.67a.6.6 0 010-.847l3.288-3.287a.95.95 0 000-1.343l-6.574-6.574a.95.95 0 00-1.28-.058l-3.143 2.62a7.7 7.7 0 00-2.45 8.139l1.82-.546a5.804 5.804 0 011.847-6.134l2.476-2.064 5.288 5.288-1.395 1.396-4.259-4.259L5.76 33.52l4.264 4.264a2.496 2.496 0 00.118 3.405l7.67 7.67a2.5 2.5 0 003.534 0l2.615-2.615 5.289 5.288-1.269 1.523-3.348-3.348-1.343 1.343 3.443 3.443v0a5.8 5.8 0 01-3.951 1.607h-.093a5.833 5.833 0 01-1.637-.246A26.706 26.706 0 014.07 40.533l-1.754.731A28.583 28.583 0 0016.43 56.1H9.457a.368.368 0 01-.35-.252L8.758 54.8h0a2.268 2.268 0 00-4.303 0l-.349 1.047h0a.368.368 0 01-.35.252H1.003v1.9h2.755a2.267 2.267 0 002.151-1.551l.35-1.048h0a.368.368 0 01.698 0l.349 1.048h0a2.264 2.264 0 002.152 1.55l13.395-.001a7.698 7.698 0 005.795-2.773l2.619-3.142v-.001a.95.95 0 00-.058-1.28l-6.575-6.574z" fill="#CA3C2F" stroke="#CA3C2F" stroke-width=".3"/><path d="M49.653 9.347A28.501 28.501 0 001.082 27.366l1.895.14A26.6 26.6 0 0156.1 29.498c.012 4.092-.93 8.13-2.751 11.794l1.702.844a28.52 28.52 0 00-5.398-32.79v0z" fill="#4096FC" stroke="#4096FC" stroke-width=".3"/><path d="M42.422 52.754a.95.95 0 00-.46 1.06l.473 1.891-7.407-2.02 5.387-6.06.345 1.38v0a.949.949 0 001.43.572A23.65 23.65 0 0053.25 29.5c0-13.096-10.654-23.75-23.75-23.75A23.757 23.757 0 006.393 23.993l1.849.439a21.945 21.945 0 017.615-11.999A21.61 21.61 0 0129.5 7.651c12.048 0 21.85 9.802 21.85 21.85a21.752 21.752 0 01-9.076 17.728l-.453-1.81a.949.949 0 00-1.631-.4l-7.6 8.55a.95.95 0 00.46 1.547l10.45 2.85a.949.949 0 001.171-1.147l-.692-2.768h0a28.66 28.66 0 009.916-9.81l-1.625-.984a26.75 26.75 0 01-9.849 9.498h.001z" fill="#4096FC" stroke="#4096FC" stroke-width=".3"/><path d="M28.55 9.549h1.9v1.9h-1.9v-1.9zm-9.847 3.148l1.646-.95.95 1.645-1.646.95-.95-1.645zm-6.955 7.65l.95-1.646 1.646.95-.95 1.646-1.646-.95zm32.909 18.999l.95-1.645 1.645.95-.95 1.645-1.645-.95zm2.893-10.798h1.9v1.9h-1.9v-1.9zm-2.893-8.896l1.645-.95.95 1.645-1.645.95-.95-1.645zm-6.954-6.259l.95-1.646 1.645.95-.95 1.646-1.645-.95zM21.412 23.919l-.923 1.66 6.202 3.445a2.847 2.847 0 004.661 2.638l11.68 6.85.96-1.64-11.69-6.855a2.839 2.839 0 00-.617-2.346l6.828-11.666-1.64-.96-6.824 11.657a2.841 2.841 0 00-2.435.662l-6.202-3.445zm8.088 4.63a.95.95 0 110 1.898.95.95 0 010-1.898z" fill="#4096FC" stroke="#4096FC" stroke-width=".3"/></svg>