<svg width="59" height="59" fill="none" xmlns="http://www.w3.org/2000/svg"><path d="M39 32.35a5.693 5.693 0 00-3.8 9.937v5.263a.95.95 0 001.477.79L39 46.79l2.323 1.548a.95.95 0 001.477-.788v-5.263A5.691 5.691 0 0039 32.35h0zm1.9 13.426l-1.373-.916v0a.95.95 0 00-1.054 0l-1.373.916v-2.358a5.598 5.598 0 003.8 0v2.358zM39 41.85a3.801 3.801 0 01-2.687-6.487A3.802 3.802 0 0142.8 38.05a3.802 3.802 0 01-3.8 3.8zM22.85 10.5H35.2v1.9H22.85v-1.9z" fill="#CA3C2F" stroke="#CA3C2F" stroke-width=".3"/><path d="M14.3 16.2h30.4v1.9H14.3v-1.9zm0 5.7h20.9v1.9H14.3v-1.9zm24.7 0h5.7v1.9H39v-1.9zm-24.7 5.7h30.4v1.9H14.3v-1.9zm0 5.7h11.4v1.9H14.3v-1.9zm0 4.75h4.75v1.9H14.3v-1.9zm8.55 0h2.85v1.9h-2.85v-1.9z" fill="#4096FC" stroke="#4096FC" stroke-width=".3"/><path d="M53.25 1h-39.9A4.758 4.758 0 008.6 5.75V50.4H1.95a.95.95 0 00-.95.95v1.9A4.758 4.758 0 005.75 58h39.9a4.758 4.758 0 004.75-4.75V8.6h6.65a.95.95 0 00.95-.95v-1.9A4.758 4.758 0 0053.25 1zM9.55 56.1h-3.8a2.85 2.85 0 01-2.85-2.85v-.95h38v.95a4.73 4.73 0 00.95 2.85H9.55zm38.95-2.85a2.85 2.85 0 01-5.7 0v-1.9a.95.95 0 00-.95-.95H10.5V5.75a2.85 2.85 0 012.85-2.85h36.1c-.027.036-.047.079-.073.116-.056.079-.104.161-.156.244h0a4.8 4.8 0 00-.39.78h0c-.071.185-.13.375-.177.566-.022.09-.05.176-.067.267-.056.29-.085.583-.087.877v47.5zM56.1 6.7h-5.7v-.95a2.85 2.85 0 015.7 0v.95z" fill="#4096FC" stroke="#4096FC" stroke-width=".3"/></svg>