<svg width="52" height="60" fill="none" xmlns="http://www.w3.org/2000/svg"><path d="M45.736 39.2l.074-.146a1.045 1.045 0 00-.37-1.346 14.254 14.254 0 00-4.148-1.804 1.047 1.047 0 00-1.195.544l-.122.243a13.86 13.86 0 00-2.412-.23c-1.858 0-3.435-1.373-3.669-3.194l-.183-1.432c.569-.857 1.034-1.835 1.445-2.86-.024.09.858.218.955.223.56.03 1.095-.16 1.551-.479.99-.691 1.75-2.052 2.03-3.642.201-1.142.132-2.279-.196-3.2-.393-1.105-1.148-1.833-2.07-1.995-.339-.063-.678-.018-1.012.074-.04-.421-.107-.833-.172-1.247 1.319-.13 2.365-1.208 2.365-2.562 0-1.255-.907-2.256-2.089-2.506v-.105a10.43 10.43 0 00-5.237-9.037 8.965 8.965 0 00-1.03-.534v-1.92c0-.578-.468-1.045-1.046-1.045h-6.267c-.578 0-1.045.467-1.045 1.045v1.92c-.364.16-.71.34-1.07.557a10.41 10.41 0 00-5.198 9.014v.105c-1.182.25-2.09 1.251-2.09 2.506 0 1.354 1.047 2.432 2.367 2.563-.065.414-.133.825-.172 1.247-.334-.091-.671-.136-1.01-.074-.924.161-1.679.89-2.073 1.996-.327.92-.396 2.057-.194 3.2.279 1.588 1.038 2.95 2.029 3.641.702.49 1.7.656 2.504.254.412 1.027.878 2.005 1.447 2.862l-.184 1.432c-.234 1.82-1.81 3.193-3.669 3.193-.814 0-1.618.093-2.41.233l-.123-.245a1.041 1.041 0 00-1.195-.545 14.237 14.237 0 00-4.149 1.804c-.448.29-.608.87-.37 1.346l.075.148C3.018 41.743 1 45.682 1 49.92v8.535c0 .577.467 1.044 1.045 1.044h48.053c.578 0 1.045-.467 1.045-1.044V49.92c0-4.235-2.02-8.178-5.407-10.72h0zM37.05 22.013c.254.044.402.354.478.569.206.575.245 1.354.107 2.134-.206 1.163-.735 1.991-1.169 2.293-.1.07-.24.155-.366.103-.106-.045-.172-.176-.231-.267-.088-.136.242-1.048.278-1.238.094-.49.168-.985.224-1.482.06-.528-.06-1.096.114-1.61.079-.233.251-.535.565-.501h0zM22.63 5.927c.211-.096.428-.186.65-.261.42-.145.702-.543.702-.988V3.09h4.179v1.587c0 .445.282.843.703.988.221.075.438.165.649.261-.238.787-.536 1.55-.964 2.254-.359.59-.756 1.13-1.313 1.55-.244.185-.768.591-1.097.62-.384.034-.94-.398-1.232-.62-.744-.56-1.256-1.427-1.678-2.238-.068-.132-.81-1.47-.599-1.566h0zm-1.853 1.155c.901 2.646 3.873 6.825 7.15 4.872 1.34-.799 2.246-2.143 2.886-3.533.052-.113.615-1.292.56-1.337a8.338 8.338 0 013.056 6.453H17.715c0-2.477 1.134-4.894 3.062-6.455h0zm-5.152 9.067c0-.288.235-.523.523-.523h19.848a.523.523 0 010 1.045H16.148a.523.523 0 01-.523-.522zm.36 10.934a.377.377 0 01-.307-.073c-.433-.302-.963-1.13-1.169-2.294-.137-.779-.099-1.559.107-2.134.24-.675.554-.775 1.04-.256.033 1.585.25 3.1.62 4.52-.08.122-.18.209-.291.236h0zm1.73-5.189c0-1.066.115-2.111.293-3.134h16.128a18.3 18.3 0 01.293 3.134c0 6.913-3.749 12.536-8.357 12.536-4.608 0-8.357-5.623-8.357-12.536h0zm2.503 12.105c1.67 1.59 3.686 2.52 5.854 2.52 2.167 0 4.182-.93 5.854-2.52a5.773 5.773 0 003.562 4.156c-3.718 3.225-7.265 4.792-10.53 4.631-2.926-.144-5.805-1.672-8.573-4.536A5.77 5.77 0 0020.217 34v0zm-6.35 4.592c3.443 3.973 7.137 6.091 10.988 6.28 4.598.225 8.806-2.327 12.143-5.255.18-.157.925-1.045 1.13-1.035.29.014.58.03.868.065l-4.168 8.32H17.315l-4.17-8.322c.24-.03.482-.038.723-.053h0zm-2.421 18.82H3.089v-7.49c0-3.451 1.587-6.672 4.269-8.823l4.089 8.162v8.151zm20.893 0H19.804v-3.872a27.12 27.12 0 0012.536 0v3.872zm6.267-8.397v8.397H34.43v-5.223c0-.683-.672-1.206-1.332-1.004-4.662 1.33-9.39 1.33-14.052 0a1.053 1.053 0 00-1.331 1.004v5.223h-4.179v-8.397c0-.164-.037-.323-.11-.468L8.64 38.99a12.327 12.327 0 011.928-.828l5.167 10.314c.178.355.54.577.935.577h18.804c.396 0 .757-.222.934-.577l5.167-10.314c.67.222 1.315.5 1.93.828l-4.788 9.555c-.072.145-.11.304-.11.468h.001zm10.447 8.397h-8.357v-8.15l4.088-8.161c2.682 2.15 4.269 5.373 4.269 8.821v7.49z" fill="#4096FC" stroke="#4096FC" stroke-width=".2"/><path fill-rule="evenodd" clip-rule="evenodd" d="M45.814 39.2l.075-.146a1.04 1.04 0 00-.373-1.346 14.421 14.421 0 00-4.18-1.804 1.058 1.058 0 00-1.204.544l-.123.243-.986 1.953-4.2 8.32H17.177l-4.2-8.321-.985-1.949-.123-.245a1.052 1.052 0 00-1.204-.545 14.4 14.4 0 00-4.18 1.804 1.04 1.04 0 00-.373 1.346l.075.148.957 1.896 4.12 8.161v8.151h2.105v-8.397a1.04 1.04 0 00-.111-.468L8.434 38.99a12.48 12.48 0 011.943-.828l5.207 10.314c.179.355.543.577.942.577h18.947c.399 0 .762-.222.941-.577l5.207-10.314c.675.222 1.325.5 1.943.828l-4.823 9.555c-.072.145-.11.304-.11.468v8.397h2.105v-8.15l4.12-8.161.958-1.898zM34.421 57.41v-5.223c0-.683-.677-1.206-1.342-1.004-4.698 1.33-9.461 1.33-14.16 0-.663-.188-1.34.319-1.34 1.004v5.223h2.105v-3.872c4.197.979 8.435.979 12.631 0v3.872h2.106z" fill="#CA3C2F" stroke="#CA3C2F" stroke-width=".2"/></svg>