<svg width="51" height="58" fill="none" xmlns="http://www.w3.org/2000/svg"><path d="M2.948 57.5h42.863a1.949 1.949 0 001.948-1.947V45.81h.974a1.95 1.95 0 001.949-1.86v-7.97a1.95 1.95 0 00-1.949-1.86h-.974V23.912c0-.867-.867-1.48-2.114-1.48h-.808v-6.206a4.509 4.509 0 00-4.423-4.588h-.448v-8.69A1.949 1.949 0 0038.018 1h-18.51a1.949 1.949 0 00-1.947 1.948v3.897H9.767A1.949 1.949 0 007.82 8.793v2.845h-.682A6.242 6.242 0 001 17.56v37.992A1.949 1.949 0 002.948 57.5h0zm45.785-13.637H39.48a4.16 4.16 0 01-4.384-3.897 4.159 4.159 0 014.384-3.897h9.255v7.794zM45.645 24.38h.166v9.741H39.48a6.105 6.105 0 00-6.332 5.845 6.106 6.106 0 006.332 5.845h6.332v9.742H2.948V22.654a6.01 6.01 0 004.19 1.725h38.507zM23.405 8.793h1.95v13.638h-1.95V8.793zM31.2 22.431h-3.897V8.793H31.2v13.638zm9.215-8.845a2.561 2.561 0 012.475 2.64v6.205h-2.923v-8.845h.448zM19.51 2.948h18.51v19.483h-4.871V8.793A1.949 1.949 0 0031.2 6.845H19.51V2.948zM9.768 8.793h11.69v13.638H9.768V8.793zm-2.63 4.793h.682v8.845h-.682a4.316 4.316 0 01-4.19-4.422 4.317 4.317 0 014.19-4.423z" fill="#4096FC" stroke="#4096FC" stroke-width=".3"/><path fill-rule="evenodd" clip-rule="evenodd" d="M7.792 11.638V22.43H9.74V8.793h11.69v13.638h1.948V8.793h1.948v13.638h1.949V8.793h3.896v13.638h1.95V8.793a1.949 1.949 0 00-1.95-1.948h-11.69V2.948h18.51v19.483h1.948v-8.845h.448a2.562 2.562 0 012.474 2.64v6.205h1.948v-6.205a4.509 4.509 0 00-4.422-4.588h-.448v-8.69A1.949 1.949 0 0037.99 1H19.481a1.949 1.949 0 00-1.948 1.948v3.897H9.74a1.949 1.949 0 00-1.95 1.948v2.845z" fill="#CA3C2F" stroke="#CA3C2F" stroke-width=".3"/><path d="M40.94 39.966a1.948 1.948 0 11-3.896 0 1.948 1.948 0 013.896 0zM17.56 10.742a1.949 1.949 0 00-1.948 1.948v1.948a1.948 1.948 0 103.897 0V12.69a1.949 1.949 0 00-1.948-1.948z" fill="#CA3C2F"/></svg>