<svg width="135" height="62" fill="none" xmlns="http://www.w3.org/2000/svg"><circle opacity=".1" cx="43.2" cy="5.4" r="5.4" fill="#fff"/><circle opacity=".1" cx="19.44" cy="24.84" r="5.4" fill="#fff"/><circle opacity=".1" cx="5.4" cy="37.8" r="5.4" fill="#fff"/><circle opacity=".1" cx="9.72" cy="54" r="5.4" fill="#fff"/><circle opacity=".1" cx="22.68" cy="39.96" r="5.4" fill="#fff"/><circle opacity=".1" cx="33.4" cy="32.96" r="5.4" fill="#fff"/><circle opacity=".1" cx="61.56" cy="38.88" r="5.4" fill="#fff"/><circle opacity=".1" cx="44.28" cy="46.44" r="5.4" fill="#fff"/><circle opacity=".1" cx="60.48" cy="25.92" r="5.4" fill="#fff"/><circle opacity=".1" cx="48.06" cy="22.14" r="9.18" fill="#fff"/><circle opacity=".1" cx="43.74" cy="36.18" r="9.18" fill="#fff"/><circle opacity=".1" cx="25.38" cy="51.3" r="9.18" fill="#fff"/><circle opacity=".1" cx="50.18" cy="52.74" r="9.18" fill="#fff"/><circle opacity=".1" cx="65.18" cy="49.74" r="9.18" fill="#fff"/><circle opacity=".1" cx="69.66" cy="29.7" r="9.18" fill="#fff"/><circle opacity=".1" cx="83.7" cy="26.46" r="9.18" fill="#fff"/><circle opacity=".1" cx="79.38" cy="43.74" r="9.18" fill="#fff"/><circle opacity=".1" cx="81.54" cy="52.38" r="9.18" fill="#fff"/><circle opacity=".1" cx="95.58" cy="45.9" r="9.18" fill="#fff"/><circle opacity=".1" cx="106.38" cy="37.26" r="9.18" fill="#fff"/><circle opacity=".1" cx="107.46" cy="51.3" r="9.18" fill="#fff"/><circle opacity=".1" cx="87.48" cy="14.04" r="4.32" fill="#fff"/><circle opacity=".1" cx="97.2" cy="29.16" r="4.32" fill="#fff"/><circle opacity=".1" cx="128.52" cy="30.24" r="4.32" fill="#fff"/><circle opacity=".1" cx="124.32" cy="42.88" r="4.32" fill="#fff"/><circle opacity=".1" cx="93" cy="22.56" r="3" fill="#fff"/><circle opacity=".1" cx="104" cy="21.56" r="3" fill="#fff"/><circle opacity=".1" cx="74" cy="14.56" r="3" fill="#fff"/><circle opacity=".1" cx="42" cy="15.56" r="3" fill="#fff"/><circle opacity=".1" cx="119.88" cy="42.12" r="4.32" fill="#fff"/><circle opacity=".1" cx="123.12" cy="52.92" r="4.32" fill="#fff"/><circle opacity=".1" cx="130.68" cy="44.28" r="4.32" fill="#fff"/><circle opacity=".1" cx="112.32" cy="29.88" r="4.32" fill="#fff"/><circle opacity=".1" cx="61.56" cy="18.36" r="4.32" fill="#fff"/><circle opacity=".1" cx="30.24" cy="20.52" r="4.32" fill="#fff"/><circle opacity=".1" cx="16.2" cy="34.56" r="4.32" fill="#fff"/><circle opacity=".1" cx="36.72" cy="43.2" r="4.32" fill="#fff"/></svg>