<svg viewBox="0 0 230 40" xmlns="http://www.w3.org/2000/svg"><ellipse cx="30.211" cy="31.882" rx="7.968" ry="7.808" fill="#fff"/><path d="M25.231 12.362c0 6.828-5.648 12.362-12.616 12.362-6.967 0-12.616-5.535-12.616-12.362C-.001 5.534 5.647 0 12.615 0c6.967 0 12.616 5.535 12.616 12.362zm-20.043 0c0 4.02 3.325 7.279 7.428 7.279 4.102 0 7.427-3.26 7.427-7.279 0-4.02-3.325-7.279-7.427-7.279-4.102 0-7.428 3.26-7.428 7.279zm55.234 0c0 6.828-5.648 12.362-12.616 12.362-6.967 0-12.616-5.535-12.616-12.362C35.19 5.534 40.838 0 47.806 0c6.967 0 12.616 5.535 12.616 12.362zm-20.043 0c0 4.02 3.325 7.279 7.428 7.279 4.102 0 7.427-3.26 7.427-7.279 0-4.02-3.325-7.279-7.427-7.279-4.103 0-7.428 3.26-7.428 7.279z" fill="#4096FC"/><path d="M35.689 14.64V9.272s-2.158-1.626-5.56-1.626c-3.404 0-5.562 1.626-5.562 1.626v5.368s2.324-1.79 5.561-1.79 5.561 1.79 5.561 1.79z" fill="#4096FC"/><path d="M88.645 26.928h1.75l-5.66-7.261 5.35-6.858H88.44l-4.878 6.333h-3.293V12.81h-1.482v14.119h1.482v-6.475h3.293l5.084 6.475zm10.101-14.119h-5.393v14.119h1.523V22.47h3.87c3.664 0 5.887-1.815 5.887-4.82 0-3.026-2.223-4.841-5.887-4.841zm-.041 8.35h-3.829V14.1h3.829c2.882 0 4.405 1.292 4.405 3.55 0 2.22-1.523 3.51-4.405 3.51zm16.195 5.89c4.323 0 7.554-3.046 7.554-7.18s-3.231-7.181-7.554-7.181c-4.363 0-7.574 3.066-7.574 7.18s3.211 7.181 7.574 7.181zm0-1.331c-3.478 0-6.072-2.481-6.072-5.85s2.594-5.849 6.072-5.849c3.458 0 6.031 2.481 6.031 5.85s-2.573 5.849-6.031 5.849zm21.04-12.909h-11.63v1.29h5.064v12.829h1.502V14.1h5.064v-1.291z" fill="#fff"/><path d="M145.24 27.291c2.511 0 4.59-.887 5.949-2.521l-2.141-1.937c-.967 1.11-2.182 1.675-3.623 1.675-2.696 0-4.61-1.856-4.61-4.519 0-2.662 1.914-4.518 4.61-4.518 1.441 0 2.656.565 3.623 1.654l2.141-1.936c-1.359-1.614-3.438-2.501-5.928-2.501-4.488 0-7.822 3.045-7.822 7.301s3.334 7.302 7.801 7.302zm12.06-2.864v-3.268h6.69v-2.541h-6.69v-3.066h7.575V12.93h-10.889v14.119h11.157v-2.622H157.3zm17.39-11.497h-6.237v14.119h3.335v-3.893h2.902c3.849 0 6.257-1.956 6.257-5.103 0-3.167-2.408-5.123-6.257-5.123zm-.185 7.564h-2.717v-4.902h2.717c2.038 0 3.067.908 3.067 2.461 0 1.533-1.029 2.44-3.067 2.44zm19.235-.807c1.277-.605 2.038-1.674 2.038-3.106 0-2.34-1.976-3.651-5.31-3.651h-6.71v14.119h7.101c3.643 0 5.598-1.513 5.598-3.974 0-1.714-.967-2.884-2.717-3.388zm-6.668-4.337h3.108c1.44 0 2.202.606 2.202 1.715 0 1.13-.762 1.714-2.202 1.714h-3.108V15.35zm3.663 9.279h-3.663v-3.57h3.663c1.544 0 2.347.564 2.347 1.754 0 1.23-.803 1.816-2.347 1.816zm8.985 2.42h3.149l6.875-9.177v9.177h3.293V12.93h-3.128l-6.875 9.198V12.93h-3.314v14.119zm24.33.242c2.512 0 4.59-.887 5.949-2.521l-2.141-1.937c-.967 1.11-2.182 1.675-3.622 1.675-2.697 0-4.611-1.856-4.611-4.519 0-2.662 1.914-4.518 4.611-4.518 1.44 0 2.655.565 3.622 1.654l2.141-1.936c-1.359-1.614-3.437-2.501-5.928-2.501-4.487 0-7.822 3.045-7.822 7.301s3.335 7.302 7.801 7.302z" fill="#4096FC"/></svg>