<svg width="230" height="40" fill="none" xmlns="http://www.w3.org/2000/svg"><ellipse cx="30.211" cy="31.882" rx="7.968" ry="7.808" fill="#212121"/><path d="M25.231 12.362c0 6.828-5.648 12.363-12.616 12.363C5.649 24.725 0 19.19 0 12.362 0 5.535 5.648 0 12.616 0 19.582 0 25.23 5.535 25.23 12.362zm-20.043 0c0 4.02 3.325 7.279 7.428 7.279 4.102 0 7.427-3.259 7.427-7.279s-3.325-7.278-7.427-7.278c-4.103 0-7.428 3.259-7.428 7.278zm55.234 0c0 6.828-5.648 12.363-12.616 12.363-6.967 0-12.615-5.535-12.615-12.363C35.19 5.535 40.839 0 47.806 0c6.968 0 12.616 5.535 12.616 12.362zm-20.043 0c0 4.02 3.325 7.279 7.427 7.279 4.102 0 7.428-3.259 7.428-7.279s-3.326-7.278-7.428-7.278-7.427 3.259-7.427 7.278z" fill="#4096FC"/><path d="M35.689 14.64V9.272s-2.158-1.627-5.561-1.627-5.56 1.627-5.56 1.627v5.368s2.323-1.79 5.56-1.79c3.237 0 5.56 1.79 5.56 1.79z" fill="#4096FC"/><path d="M88.645 26.928h1.75l-5.66-7.262 5.351-6.857H88.44l-4.879 6.333h-3.293v-6.333h-1.482v14.119h1.482v-6.475h3.293l5.084 6.475zm10.101-14.119h-5.392v14.119h1.523V22.47h3.87c3.663 0 5.886-1.815 5.886-4.82 0-3.026-2.223-4.841-5.887-4.841zm-.04 8.35h-3.83v-7.06h3.83c2.881 0 4.404 1.291 4.404 3.55 0 2.22-1.523 3.51-4.405 3.51zm16.197 5.89c4.323 0 7.555-3.046 7.555-7.18 0-4.136-3.232-7.181-7.555-7.181-4.363 0-7.574 3.065-7.574 7.18s3.211 7.18 7.574 7.18zm0-1.331c-3.478 0-6.072-2.482-6.072-5.85 0-3.368 2.594-5.85 6.072-5.85 3.458 0 6.031 2.482 6.031 5.85 0 3.369-2.573 5.85-6.031 5.85zm21.033-12.909h-11.63v1.29h5.064v12.829h1.502V14.099h5.064v-1.29z" fill="#212121"/><path d="M145.244 27.29c2.511 0 4.59-.887 5.948-2.52l-2.14-1.937c-.968 1.11-2.182 1.674-3.623 1.674-2.696 0-4.61-1.855-4.61-4.518 0-2.662 1.914-4.518 4.61-4.518 1.441 0 2.655.565 3.623 1.654l2.14-1.936c-1.358-1.614-3.437-2.502-5.927-2.502-4.488 0-7.822 3.046-7.822 7.302s3.334 7.302 7.801 7.302zm12.053-2.863v-3.268h6.69v-2.541h-6.69v-3.066h7.575V12.93h-10.889v14.119h11.156v-2.622h-7.842zm17.39-11.497h-6.237v14.119h3.335v-3.893h2.902c3.849 0 6.257-1.957 6.257-5.103 0-3.167-2.408-5.123-6.257-5.123zm-.185 7.563h-2.717v-4.901h2.717c2.037 0 3.067.908 3.067 2.46 0 1.534-1.03 2.441-3.067 2.441zm19.242-.806c1.277-.606 2.038-1.675 2.038-3.107 0-2.34-1.976-3.65-5.31-3.65h-6.711v14.119h7.102c3.643 0 5.598-1.513 5.598-3.974 0-1.714-.967-2.884-2.717-3.388zm-6.669-4.337h3.108c1.441 0 2.203.605 2.203 1.714 0 1.13-.762 1.715-2.203 1.715h-3.108V15.35zm3.664 9.278h-3.664v-3.57h3.664c1.544 0 2.347.565 2.347 1.755 0 1.23-.803 1.815-2.347 1.815zm8.977 2.421h3.149l6.875-9.178v9.178h3.293v-14.12h-3.128l-6.875 9.198V12.93h-3.314v14.119zm24.335.241c2.511 0 4.59-.887 5.949-2.52l-2.141-1.937c-.967 1.11-2.182 1.674-3.622 1.674-2.697 0-4.611-1.855-4.611-4.518 0-2.662 1.914-4.518 4.611-4.518 1.44 0 2.655.565 3.622 1.654L230 15.189c-1.359-1.614-3.438-2.502-5.928-2.502-4.487 0-7.822 3.046-7.822 7.302s3.335 7.302 7.801 7.302z" fill="#4096FC"/></svg>