<svg width="14" height="14" fill="none" xmlns="http://www.w3.org/2000/svg"><path fill-rule="evenodd" clip-rule="evenodd" d="M0 2.996S-.03 2.19.48 1.15C.84.413 2.244.007 2.244.007s.6-.153 1.805 1.01c.48.445.784 1.045.86 1.694.043.592-1.22 1.854-1.22 1.854.1.725.401 1.407.873 1.965a31.1 31.1 0 001.8 1.898c.383.36.811.83 1.382 1.209 1.121.743 1.39.676 1.39.676s1.598-1.34 2.076-1.292c.364.036.88.276 1.537.837.49.416.802.73 1.047 1.15.088.146.156.3.205.463 0 0 .064.664-.967 1.72-1.027 1.05-2.442.776-2.442.776s-.814-.12-2.145-.747a14.668 14.668 0 01-3.974-2.843C3.391 9.262 1.977 7.557 1.29 6.37.423 4.878 0 2.996 0 2.996z" fill="#fff"/></svg>