<svg width="134" height="159" fill="none" xmlns="http://www.w3.org/2000/svg"><path opacity=".2" d="M15.428 129.912c2.735 2.875 5.319 4.731 7.364 6.197 24.018 17.233 52.437 12.211 58.474 10.982 8.918-1.811 26.16-5.313 38.624-19.972 18.855-22.178 15.921-57.115 1.292-80.176-2.677-4.216-16.806-27.627-45.53-31.382-17.384-2.273-37.648 2.312-52.326 14.605-30.804 25.806-28.608 77.942-7.898 99.746z" fill="#fff"/><path d="M87.072 83.77c.82-2.177 1.17-4.767.634-7.79 3.307-.576 6.393-1.758 9.1-3.632.32 4.652-.914 9.787-5.193 14.876-2.079 2.474-4.873 4.937-8.559 7.33l-1.083 2.317-3.26-4.064c-.006 0 6.038-2.865 8.36-9.036z" fill="url(#paint0_linear_21_73)"/><path d="M41.192 63.54c3.342.588 6.27.145 8.856-.81.07.577.163 1.153.297 1.736.564 2.544 1.345 5.007 2.433 7.272-5.007.739-9.53-.71-12.907-2.446-.047-2.358.6-4.314 1.321-5.752z" fill="url(#paint1_linear_21_73)"/><path d="M50.049 62.73c4.343-1.613 7.726-4.694 10.503-6.883 5.851-4.605 10.294-2.224 10.294-2.224L64.47 65.675c-3.982 3.75-7.964 5.508-11.685 6.061-1.088-2.27-1.869-4.733-2.433-7.272a14.476 14.476 0 01-.303-1.735z" fill="#fff"/><path d="M28.67 57.734l2.945 1.718c3.529 2.323 6.707 3.58 9.578 4.081a12.233 12.233 0 00-1.316 5.747c-3.738-1.921-6.067-4.192-6.067-4.192-6.672-4.297-5.14-7.354-5.14-7.354z" fill="url(#paint2_linear_21_73)"/><path d="M62.228 141.812a28.017 28.017 0 00-.145-.681L38.025 40.109l-10.3 1.986 15.26 102.721c.036.227.076.46.117.687l.664 3.435c1.135 5.898 5.28 10.055 9.257 9.287l4.728-.914c3.977-.769 6.276-6.172 5.141-12.064l-.664-3.435zm-8.064 9.612c-2.637.507-5.473-2.678-6.328-7.114-.856-4.443.588-8.454 3.225-8.961 2.638-.506 5.473 2.678 6.329 7.115.856 4.442-.582 8.454-3.226 8.96z" fill="#FF6161"/><path d="M41.793.495c-2.638-1.555-5.875.786-5.298 3.796l3.848 19.941a4.671 4.671 0 01-1.083 3.97l-4.908 5.555a4.662 4.662 0 01-5.584 1.077l-6.62-3.33a4.685 4.685 0 01-2.486-3.284L15.814 8.28c-.582-3.011-4.46-3.977-6.329-1.555-4.477 5.799-6.533 13.56-5.001 21.495C7.249 42.56 20.338 50.263 34.13 47.603c13.792-2.661 23.067-14.684 20.302-29.024C52.902 10.655 48.11 4.215 41.793.495z" fill="#FF6161"/><path d="M39.912.856c-2.638-1.554-5.875.786-5.298 3.796l3.848 19.941a4.671 4.671 0 01-1.083 3.971l-4.908 5.555a4.662 4.662 0 01-5.583 1.077l-6.62-3.33a4.674 4.674 0 01-2.486-3.284L13.933 8.646c-.582-3.01-4.46-3.976-6.329-1.554-4.477 5.799-6.532 13.56-5.001 21.495C5.368 42.927 18.457 50.63 32.25 47.97c13.793-2.661 23.068-14.684 20.302-29.024-1.531-7.93-6.323-14.37-12.64-18.09z" fill="#EB2F2F"/><path d="M60.732 142.103c-.047-.227-.093-.454-.145-.681L36.523 40.394l-10.3 1.986 15.26 102.722c.036.227.076.46.117.687l.664 3.435c1.135 5.898 5.28 10.055 9.257 9.286l4.728-.914c3.977-.768 6.276-6.171 5.141-12.063l-.658-3.43zm-8.064 9.613c-2.637.506-5.473-2.678-6.328-7.115-.856-4.442.588-8.454 3.225-8.96 2.638-.507 5.473 2.678 6.329 7.114.856 4.437-.588 8.449-3.226 8.961z" fill="#EB2F2F"/><path d="M28.28 62.181a2.184 2.184 0 01.506-1.793c.827-.96 2.26-2.27 3.296-1.386 1.543 1.316-.146 5.822-.146 5.822l-1.712 2.615-.023 1.67c-.926-1.082-1.485-3.749-1.921-6.928z" fill="url(#paint3_linear_21_73)"/><path d="M65.757 90s-7.639 31.713-8.116 63.415c-.006.577 4.413 1.089 4.512.554 1.03-5.433 7.837-40.82 10.969-45.746 0 0-.07 31.19-.978 45.367-.023.355 3.988 1.509 4.826.607 0 0 5.654-34.516 5.881-56.18C82.863 96.9 80.848 90 80.848 90H65.757z" fill="#1882FF"/><path d="M60.103 56.265c.477-.605-.123 1.229 0 0z" fill="url(#paint4_linear_21_73)"/><path d="M60.102 56.267c.012-.117.03-.257.053-.425 8.355-5.794 20.716-2.55 25.507-1.852a6.394 6.394 0 014.012 2.253c2.44 2.935 6.631 8.95 7.126 16.11-2.707 1.881-5.793 3.057-9.1 3.634-.274-1.55-.786-3.203-1.584-4.978-.093.407-.203.815-.337 1.216-3.599 10.696-5.48 16.803-5.508 18.87-.006.28-16.489-.401-13.572-.489 1.223-.035-5.682-24.39-9.292-28.71-.21-.267 3.173-6.235 2.696-5.63z" fill="#fff"/><path d="M78.105 45.191l.693 8.821s-4.978 1.397-8.535-1.211l2.684-7.953 5.158.343z" fill="url(#paint5_linear_21_73)"/><path d="M72.545 35.05c-.122.11-5.217 9.66-5.217 9.66l5.514 2.794 6.171-8.338c.006 0-4.436-5.956-6.468-4.116z" fill="url(#paint6_linear_21_73)"/><path d="M74.403 37.093c1.234.18 1.892 1.55 2.154 2.26a.9.9 0 01-.082.78l-2.864 4.576a.69.69 0 01-.157.186c-.338.303-1.485 1.176-2.335-.058-.728-1.054-1.41-2.009-2.149-2.41a.89.89 0 00-1.205.372c-.472.897-1.397 2.73-1.985 4.472a.886.886 0 00.495 1.094c1.117.478 3.33 1.345 5.304 1.654a.88.88 0 00.844-.344c.873-1.147 3.33-4.36 4.163-5.158.774-.745 2.171-.431 2.8-.239a.87.87 0 00.71-.081c.647-.373 1.788-1.316.792-2.964a.89.89 0 01.297-1.2c.722-.46 1.52-1.327.804-2.77-.903-1.829-3.453-1.654-4.885-3-.704-.663-1.403-1.402-2.317-1.711a1.99 1.99 0 00-.612-.11c-.902.017-2.264 1.502-2.328 2.398-.088 1.281 1.478 2.096 2.556 2.253z" fill="url(#paint7_linear_21_73)"/><path d="M75.509 46.195S76.639 43.09 78 43.23c1.362.14 2.416 1.526.693 3.022-2.143 1.863-3.185-.058-3.185-.058z" fill="url(#paint8_linear_21_73)"/><path d="M86.583 70.204c1.892-4.897 1.35-10.864 1.35-10.923l-.494.047c.006.058.535 5.91-1.316 10.695l.46.18z" fill="#DADADA"/><path opacity=".3" d="M73.378 107.589a.25.25 0 00.245-.18c.588-2.108 4.75-4.361 4.791-4.385a.25.25 0 10-.233-.442c-.18.093-4.39 2.375-5.036 4.693a.25.25 0 00.175.308c.017 0 .04.006.058.006z" fill="#fff"/><path d="M85.32 74.52c.03-.14 0-.286-.081-.402l-6.149-9.27a.243.243 0 00-.198-.104h-11.26a.52.52 0 00-.448.256l-5.351 9.06a.75.75 0 00-.093.524c2.12 6.433 4.169 12.762 4.023 15.848 3.837 2.998 10.59 2.37 15.202.995.233-4.029 2.207-10.352 4.355-16.907z" fill="#4096FC"/><path d="M83.154 53.658L79.02 65.536h-2.486l3.674-12.373a.24.24 0 01.285-.168l2.591.535c.058.012.093.076.07.128zm-14.16-.832l1.013 12.39-2.294.279-1.956-12.355c-.011-.087.053-.175.14-.18l2.94-.268a.145.145 0 01.157.134z" fill="#4096FC"/><path d="M69.395 35.662c4.909-9.274 17.63-.85 11.71 6.964-4.397-2.929-9.375-7.278-11.71-6.964z" fill="#EB2F2F"/><path d="M69.716 34.66c-9.927-.506-1.752 3.174 7.284 5.142-2.247-2.387-4.495-4.169-7.284-5.141z" fill="#FF6161"/><defs><linearGradient id="paint0_linear_21_73" x1="83.976" y1="45.569" x2="88.96" y2="94.369" gradientUnits="userSpaceOnUse"><stop stop-color="#FEBBBA"/><stop offset="1" stop-color="#FF928E"/></linearGradient><linearGradient id="paint1_linear_21_73" x1="45.747" y1="64.853" x2="51.153" y2="117.787" gradientUnits="userSpaceOnUse"><stop stop-color="#FEBBBA"/><stop offset="1" stop-color="#FF928E"/></linearGradient><linearGradient id="paint2_linear_21_73" x1="19.528" y1="41.36" x2="60.633" y2="96.049" gradientUnits="userSpaceOnUse"><stop stop-color="#FEBBBA"/><stop offset="1" stop-color="#FF928E"/></linearGradient><linearGradient id="paint3_linear_21_73" x1="44.604" y1="58.26" x2="64.683" y2="50.151" gradientUnits="userSpaceOnUse"><stop stop-color="#FEBBBA"/><stop offset="1" stop-color="#FF928E"/></linearGradient><linearGradient id="paint4_linear_21_73" x1="60.168" y1="56.192" x2="60.287" y2="57.355" gradientUnits="userSpaceOnUse"><stop stop-color="#FDF53F"/><stop offset=".664" stop-color="#E57A58"/><stop offset="1" stop-color="#D93C65"/></linearGradient><linearGradient id="paint5_linear_21_73" x1="72.861" y1="42.735" x2="79.287" y2="73.11" gradientUnits="userSpaceOnUse"><stop stop-color="#FEBBBA"/><stop offset="1" stop-color="#FF928E"/></linearGradient><linearGradient id="paint6_linear_21_73" x1="73.211" y1="37.628" x2="73.404" y2="13.687" gradientUnits="userSpaceOnUse"><stop stop-color="#FEBBBA"/><stop offset="1" stop-color="#FF928E"/></linearGradient><linearGradient id="paint7_linear_21_73" x1="65.733" y1="41.233" x2="82.272" y2="41.233" gradientUnits="userSpaceOnUse"><stop stop-color="#4F52FF"/><stop offset="1" stop-color="#4042E2"/></linearGradient><linearGradient id="paint8_linear_21_73" x1="76.705" y1="59.116" x2="77.588" y2="44.874" gradientUnits="userSpaceOnUse"><stop stop-color="#FEBBBA"/><stop offset="1" stop-color="#FF928E"/></linearGradient></defs></svg>