<svg width="564" height="727" fill="none" xmlns="http://www.w3.org/2000/svg"><path opacity=".2" d="M122.79 525.845c10.242 10.77 19.921 17.72 27.58 23.214 89.964 64.549 196.411 45.737 219.025 41.134 33.403-6.786 97.988-19.903 144.671-74.809 70.625-83.069 59.636-213.931 4.839-300.311-10.024-15.792-62.948-103.482-170.541-117.545-65.112-8.514-141.013 8.66-195.992 54.706-115.38 96.659-107.157 291.943-29.582 373.611z" fill="#fff"/><path d="M348.983 435.698c-.51.546.236 1.328.819.855 21.194-17.447 102.317-102.062 125.822-263.871.073-.527-.691-.673-.819-.163-8.841 37.695-45.755 176.817-125.822 263.179z" fill="#fff"/><path d="M445.478 726.014h26.653V227.88c0-22.177-18.029-40.206-40.207-40.206h-27.707c-7.478 0-13.572-6.095-13.572-13.572V0H364.01v174.084c0 22.177 18.048 40.206 40.207 40.206h27.689c7.478 0 13.572 6.095 13.572 13.572v498.152z" fill="url(#paint0_linear_18_146)"/><path d="M359.662 162.477h35.494v6.076h-35.494v-6.076z" fill="url(#paint1_linear_18_146)"/><path d="M416.897 182.943v35.495h6.077v-35.495h-6.077z" fill="url(#paint2_linear_18_146)"/><path d="M476.697 239.561h-35.494v6.076h35.494v-6.076z" fill="url(#paint3_linear_18_146)"/><path d="M342.064 371.228c3.304-8.766 4.711-19.196 2.554-31.36 13.313-2.321 25.736-7.079 36.634-14.626 1.29 18.727-3.679 39.4-20.906 59.885-8.368 9.961-19.618 19.876-34.455 29.509l-4.359 9.328-13.126-16.36c-.023 0 24.306-11.531 33.658-36.376z" fill="url(#paint4_linear_18_146)"/><path d="M157.37 289.781c13.454 2.368 25.243.586 35.65-3.258.281 2.321.656 4.641 1.195 6.985 2.274 10.243 5.414 20.157 9.797 29.274-20.157 2.977-38.368-2.859-51.962-9.844-.188-9.492 2.414-17.367 5.32-23.157z" fill="url(#paint5_linear_18_146)"/><path d="M193.021 286.524c17.485-6.493 31.103-18.891 42.283-27.704 23.556-18.54 41.439-8.954 41.439-8.954l-25.665 48.518c-16.032 15.094-32.063 22.172-47.041 24.399-4.382-9.141-7.523-19.056-9.797-29.275a58.332 58.332 0 01-1.219-6.984z" fill="#fff"/><path d="M106.955 266.414l11.86 6.914c14.203 9.352 27 14.415 38.556 16.431-2.907 5.789-5.485 13.664-5.298 23.133-15.047-7.734-24.422-16.875-24.422-16.875-26.86-17.298-20.696-29.603-20.696-29.603z" fill="url(#paint6_linear_18_146)"/><path d="M242.053 604.887c-.187-.915-.375-1.829-.586-2.743L144.62 195.467l-41.462 7.992 61.432 413.522c.141.914.305 1.851.469 2.765l2.672 13.829c4.57 23.743 21.258 40.478 37.267 37.384l19.031-3.68c16.009-3.094 25.267-24.844 20.696-48.564l-2.672-13.828zm-32.462 38.696c-10.617 2.039-22.032-10.781-25.477-28.641-3.445-17.884 2.367-34.033 12.985-36.072 10.617-2.039 22.032 10.782 25.477 28.642 3.446 17.883-2.344 34.032-12.985 36.071z" fill="#FF6161"/><path d="M159.786 35.992c-10.618-6.258-23.649 3.164-21.329 15.282l15.493 80.276a18.806 18.806 0 01-4.36 15.985l-19.758 22.36a18.77 18.77 0 01-22.478 4.336l-26.649-13.407a18.86 18.86 0 01-10.008-13.219L55.204 67.329C52.86 55.21 37.251 51.32 29.727 61.07 11.703 84.415 3.429 115.658 9.593 147.605c11.134 57.728 63.823 88.737 119.348 78.026 55.525-10.711 92.862-59.111 81.729-116.84-6.164-31.9-25.454-57.822-50.884-72.8z" fill="#FF6161"/><path d="M152.214 37.445c-10.617-6.258-23.649 3.164-21.328 15.282l15.492 80.276a18.802 18.802 0 01-4.359 15.985l-19.759 22.36a18.769 18.769 0 01-22.477 4.336l-26.65-13.407c-5.203-2.601-8.882-7.5-10.007-13.219L47.633 68.805c-2.344-12.117-17.954-16.008-25.478-6.258C4.131 85.892-4.142 117.135 2.023 149.081c11.133 57.729 63.822 88.738 119.348 78.026 55.525-10.711 92.862-59.111 81.729-116.839-6.164-31.923-25.454-57.846-50.885-72.823z" fill="#EB2F2F"/><path d="M236.03 606.056c-.188-.914-.375-1.828-.586-2.742l-96.87-406.701-41.463 7.993 61.432 413.521c.141.914.305 1.852.469 2.766l2.672 13.828c4.57 23.743 21.258 40.478 37.267 37.385l19.032-3.68c16.008-3.094 25.266-24.845 20.696-48.564l-2.649-13.806zm-32.462 38.697c-10.618 2.039-22.032-10.782-25.477-28.641-3.446-17.884 2.367-34.033 12.984-36.072 10.618-2.039 22.032 10.782 25.478 28.642 3.445 17.859-2.367 34.008-12.985 36.071z" fill="#EB2F2F"/><path d="M105.386 284.322c-.446-2.602.328-5.227 2.039-7.219 3.328-3.868 9.094-9.141 13.266-5.579 6.211 5.298-.586 23.439-.586 23.439l-6.891 10.524-.094 6.726c-3.727-4.359-5.977-15.094-7.734-27.891z" fill="url(#paint7_linear_18_146)"/><path d="M264.414 675.2c0-.281.023-.586.094-.867 4.687-17.157 26.462-27.493 26.462-27.493l8.555.844c4.64 15.305 3.82 24.61 2.953 28.735-.024.117-.07.234-.094.328-7.055.492-21.61.633-37.97-1.547z" fill="url(#paint8_linear_18_146)"/><path d="M302.382 676.748c-.398 1.383-1.453 2.438-2.766 2.695-10.078 1.922-26.016-.07-32.696-1.078-1.477-.211-2.531-1.617-2.531-3.14 16.383 2.156 30.938 2.015 37.993 1.523z" fill="url(#paint9_linear_18_146)"/><path d="M303.203 634.98l-3.961 17.368c-.281 1.266-1.289 2.203-2.484 2.297-1.454.117-3.54.141-5.602-.187-1.875-.305-3.141-2.227-2.766-4.266l2.813-15.446 12 .234z" fill="url(#paint10_linear_18_146)"/><path d="M227.334 675.152c9.446-.093 14.368-1.101 16.899-2.086 0 .938-.023 1.899-.093 2.883-.047 1.055-.844 1.899-1.805 1.875l-51.893-1.312c-1.664-.047-2.578-1.992-1.851-3.492 6.82.679 24.141 2.273 38.743 2.132z" fill="url(#paint11_linear_18_146)"/><path d="M188.613 673.02c.071-.14.117-.257.211-.398 4.711-6.305 16.618-18.844 39.775-23.931l11.063-.14s4.758 8.649 4.547 24.516c-2.555.985-7.454 2.016-16.899 2.086-14.579.141-31.9-1.453-38.697-2.133z" fill="url(#paint12_linear_18_146)"/><path d="M242.054 631.815c-.141.82-1.899 13.336-2.579 18.188-.164 1.148-1.007 2.039-2.062 2.133-1.899.187-4.946.328-7.594-.258-1.43-.328-2.438-1.735-2.414-3.329l.375-19.664 14.274 2.93z" fill="url(#paint13_linear_18_146)"/><path d="M256.257 396.309s-30.751 127.668-32.673 255.289c-.023 2.321 17.766 4.383 18.165 2.227 4.148-21.868 31.548-164.326 44.157-184.155 0 0-.281 125.559-3.937 182.631-.094 1.43 16.055 6.071 19.43 2.438 0 0 22.759-138.942 23.673-226.156.047-4.5-8.063-32.274-8.063-32.274h-60.752z" fill="#1882FF"/><path d="M233.499 260.507c1.922-2.438-.492 4.945 0 0z" fill="url(#paint14_linear_18_146)"/><path d="M233.497 260.508c.047-.469.117-1.031.211-1.711 33.634-23.321 83.393-10.266 102.683-7.453a25.74 25.74 0 0116.149 9.07c9.821 11.813 26.696 36.025 28.689 64.854-10.899 7.571-23.322 12.305-36.635 14.626-1.101-6.235-3.164-12.891-6.375-20.04a52.403 52.403 0 01-1.359 4.898c-14.485 43.057-22.056 67.643-22.173 75.964-.023 1.125-66.377-1.617-54.634-1.969 4.922-.141-22.876-98.183-37.408-115.574-.844-1.078 12.774-25.102 10.852-22.665z" fill="#fff"/><path d="M305.97 215.928l2.789 35.509s-20.04 5.625-34.361-4.875l10.806-32.017 20.766 1.383z" fill="url(#paint15_linear_18_146)"/><path d="M283.587 175.098c-.493.445-21.001 38.884-21.001 38.884l22.196 11.25 24.845-33.563c.023 0-17.86-23.978-26.04-16.571z" fill="url(#paint16_linear_18_146)"/><path d="M291.063 183.325c4.969.726 7.617 6.234 8.672 9.094a3.624 3.624 0 01-.328 3.141l-11.532 18.422a2.766 2.766 0 01-.633.75c-1.359 1.219-5.977 4.735-9.399-.234-2.929-4.243-5.672-8.086-8.648-9.704-1.735-.937-3.914-.258-4.852 1.5-1.899 3.61-5.625 10.993-7.992 18.001a3.567 3.567 0 001.992 4.406c4.5 1.922 13.406 5.415 21.352 6.657a3.54 3.54 0 003.399-1.383c3.515-4.617 13.406-17.555 16.758-20.766 3.117-3 8.742-1.735 11.274-.961a3.503 3.503 0 002.859-.328c2.602-1.501 7.196-5.298 3.188-11.931-.985-1.64-.422-3.82 1.195-4.828 2.907-1.851 6.118-5.344 3.235-11.156-3.633-7.36-13.899-6.657-19.665-12.071-2.836-2.672-5.649-5.649-9.328-6.891-.797-.258-1.618-.445-2.461-.445-3.633.07-9.118 6.047-9.376 9.656-.351 5.157 5.954 8.438 10.29 9.071z" fill="url(#paint17_linear_18_146)"/><path d="M295.518 219.958s4.547-12.492 10.031-11.93c5.485.563 9.727 6.141 2.789 12.165-8.625 7.5-12.82-.235-12.82-.235z" fill="url(#paint18_linear_18_146)"/><path d="M340.096 316.619c7.617-19.712 5.437-43.736 5.437-43.971l-1.992.188c.024.234 2.157 23.79-5.297 43.056l1.852.727z" fill="#DADADA"/><path opacity=".3" d="M286.937 467.116c.445 0 .867-.281.984-.726 2.367-8.485 19.126-17.556 19.29-17.649.492-.258.679-.868.422-1.36a1.008 1.008 0 00-1.36-.422c-.726.375-17.672 9.563-20.274 18.892-.141.539.164 1.101.703 1.242.07 0 .164.023.235.023z" fill="#fff"/><path d="M335.01 333.986c.117-.563 0-1.149-.328-1.618l-24.751-37.313a.979.979 0 00-.797-.422h-45.33c-.75 0-1.429.398-1.804 1.031l-21.54 36.47a3.015 3.015 0 00-.375 2.109c8.531 25.9 16.782 51.377 16.196 63.799 15.445 12.071 42.634 9.54 61.197 4.008.937-16.219 8.883-41.673 17.532-68.064z" fill="#4096FC"/><path d="M326.292 250.006l-16.641 47.814h-10.008l14.789-49.807a.964.964 0 011.149-.679l10.43 2.156c.234.047.375.305.281.516zm-57.004-3.352l4.078 49.877-9.234 1.125-7.876-49.736c-.046-.352.211-.704.563-.727l11.836-1.078a.582.582 0 01.633.539z" fill="#4096FC"/><path d="M270.906 177.558c19.759-37.337 70.971-3.422 47.135 28.032-17.696-11.789-37.736-29.298-47.135-28.032z" fill="#EB2F2F"/><path d="M272.195 173.527c-39.963-2.04-7.055 12.773 29.321 20.696-9.047-9.61-18.094-16.782-29.321-20.696z" fill="#FF6161"/><defs><linearGradient id="paint0_linear_18_146" x1="89.144" y1="-25.798" x2="144.647" y2="36.944" gradientUnits="userSpaceOnUse"><stop stop-color="#4F52FF"/><stop offset="1" stop-color="#4042E2"/></linearGradient><linearGradient id="paint1_linear_18_146" x1="363.963" y1="138.835" x2="290.361" y2="-7.163" gradientUnits="userSpaceOnUse"><stop stop-color="#4F52FF"/><stop offset="1" stop-color="#4042E2"/></linearGradient><linearGradient id="paint2_linear_18_146" x1="3587.41" y1="-1396.13" x2="3733.41" y2="-1469.73" gradientUnits="userSpaceOnUse"><stop stop-color="#4F52FF"/><stop offset="1" stop-color="#4042E2"/></linearGradient><linearGradient id="paint3_linear_18_146" x1="1532.7" y1="2372.49" x2="1606.3" y2="2518.49" gradientUnits="userSpaceOnUse"><stop stop-color="#4F52FF"/><stop offset="1" stop-color="#4042E2"/></linearGradient><linearGradient id="paint4_linear_18_146" x1="329.602" y1="217.439" x2="349.665" y2="413.893" gradientUnits="userSpaceOnUse"><stop stop-color="#FEBBBA"/><stop offset="1" stop-color="#FF928E"/></linearGradient><linearGradient id="paint5_linear_18_146" x1="175.706" y1="295.069" x2="197.469" y2="508.161" gradientUnits="userSpaceOnUse"><stop stop-color="#FEBBBA"/><stop offset="1" stop-color="#FF928E"/></linearGradient><linearGradient id="paint6_linear_18_146" x1="70.156" y1="200.497" x2="235.628" y2="420.656" gradientUnits="userSpaceOnUse"><stop stop-color="#FEBBBA"/><stop offset="1" stop-color="#FF928E"/></linearGradient><linearGradient id="paint7_linear_18_146" x1="171.101" y1="268.537" x2="251.933" y2="235.893" gradientUnits="userSpaceOnUse"><stop stop-color="#FEBBBA"/><stop offset="1" stop-color="#FF928E"/></linearGradient><linearGradient id="paint8_linear_18_146" x1="264.408" y1="661.948" x2="303.155" y2="661.948" gradientUnits="userSpaceOnUse"><stop stop-color="#4F52FF"/><stop offset="1" stop-color="#4042E2"/></linearGradient><linearGradient id="paint9_linear_18_146" x1="285.268" y1="577.069" x2="283.99" y2="644.674" gradientUnits="userSpaceOnUse"><stop stop-color="#09005D"/><stop offset="1" stop-color="#1A0F91"/></linearGradient><linearGradient id="paint10_linear_18_146" x1="293.383" y1="618.007" x2="299.544" y2="682.542" gradientUnits="userSpaceOnUse"><stop stop-color="#FEBBBA"/><stop offset="1" stop-color="#FF928E"/></linearGradient><linearGradient id="paint11_linear_18_146" x1="218.156" y1="575.798" x2="216.878" y2="643.404" gradientUnits="userSpaceOnUse"><stop stop-color="#09005D"/><stop offset="1" stop-color="#1A0F91"/></linearGradient><linearGradient id="paint12_linear_18_146" x1="188.624" y1="661.86" x2="244.254" y2="661.86" gradientUnits="userSpaceOnUse"><stop stop-color="#4F52FF"/><stop offset="1" stop-color="#4042E2"/></linearGradient><linearGradient id="paint13_linear_18_146" x1="233.149" y1="623.758" x2="239.311" y2="688.292" gradientUnits="userSpaceOnUse"><stop stop-color="#FEBBBA"/><stop offset="1" stop-color="#FF928E"/></linearGradient><linearGradient id="paint14_linear_18_146" x1="233.763" y1="260.213" x2="234.241" y2="264.895" gradientUnits="userSpaceOnUse"><stop stop-color="#FDF53F"/><stop offset=".664" stop-color="#E57A58"/><stop offset="1" stop-color="#D93C65"/></linearGradient><linearGradient id="paint15_linear_18_146" x1="284.856" y1="206.039" x2="310.727" y2="328.317" gradientUnits="userSpaceOnUse"><stop stop-color="#FEBBBA"/><stop offset="1" stop-color="#FF928E"/></linearGradient><linearGradient id="paint16_linear_18_146" x1="286.269" y1="185.476" x2="287.047" y2="89.099" gradientUnits="userSpaceOnUse"><stop stop-color="#FEBBBA"/><stop offset="1" stop-color="#FF928E"/></linearGradient><linearGradient id="paint17_linear_18_146" x1="256.163" y1="199.988" x2="322.741" y2="199.988" gradientUnits="userSpaceOnUse"><stop stop-color="#4F52FF"/><stop offset="1" stop-color="#4042E2"/></linearGradient><linearGradient id="paint18_linear_18_146" x1="300.334" y1="271.974" x2="303.888" y2="214.641" gradientUnits="userSpaceOnUse"><stop stop-color="#FEBBBA"/><stop offset="1" stop-color="#FF928E"/></linearGradient></defs></svg>