<svg width="59" height="59" viewBox="0 0 59 59" fill="none" xmlns="http://www.w3.org/2000/svg">
<path d="M24.6332 44.2274C24.4551 44.0493 24.2134 43.9492 23.9614 43.9492C23.7095 43.9492 23.4678 44.0493 23.2897 44.2274L20.003 47.5141C19.7689 47.7482 19.3893 47.7482 19.1552 47.5141L11.4858 39.8447C11.2517 39.6106 11.2517 39.231 11.4858 38.9969L14.7725 35.7102C14.9506 35.5321 15.0507 35.2904 15.0507 35.0385C15.0507 34.7866 14.9506 34.5448 14.7725 34.3667L8.19904 27.7928C7.85128 27.4454 7.29656 27.4204 6.91912 27.7347L3.77618 30.3543C2.61417 31.3208 1.76213 32.6084 1.32666 34.0558C0.891114 35.5033 0.891114 37.0466 1.32666 38.494L3.14648 37.9478C2.81824 36.857 2.81824 35.6937 3.14648 34.6029C3.47473 33.5121 4.11681 32.5423 4.99258 31.8137L7.46891 29.75L12.7574 35.0385L11.3621 36.4341L7.10326 32.1753L5.75972 33.5188L10.0244 37.7835C9.60879 38.2602 9.38995 38.8768 9.41158 39.5092C9.43364 40.1411 9.69488 40.7413 10.1423 41.1882L17.8117 48.8576C18.2803 49.3262 18.916 49.5896 19.5788 49.5896C20.2417 49.5896 20.8774 49.3262 21.3465 48.8576L23.9614 46.2426L29.2499 51.5311L27.9814 53.0536L24.6327 49.7057L23.2896 51.0493L26.7333 54.4921V54.4925C25.668 55.5103 24.2553 56.0846 22.7819 56.0986H22.6895C22.1348 56.0952 21.5834 56.0125 21.0521 55.8534C17.2636 54.7168 13.775 52.7528 10.8382 50.1036C7.90128 47.4543 5.58954 44.1857 4.07001 40.5338L2.31598 41.2641C5.02726 47.782 10.0544 53.0666 16.4299 56.0989H9.45652C9.29834 56.0989 9.15754 55.9975 9.1075 55.8474L8.75847 54.7999H8.75805C8.55618 54.1938 8.10791 53.7011 7.52395 53.4428C6.93955 53.1845 6.27368 53.1845 5.68936 53.4428C5.10538 53.701 4.65712 54.1938 4.45527 54.7999L4.10624 55.8474H4.10582C4.05577 55.9975 3.9154 56.0989 3.75679 56.0989H1.00187V57.9988H3.75679C4.23305 57.9992 4.69701 57.8495 5.08339 57.5713C5.46974 57.2927 5.75812 56.9 5.90826 56.4479L6.25728 55.4004H6.25771C6.30775 55.2502 6.44855 55.1489 6.60673 55.1489C6.76534 55.1489 6.90572 55.2502 6.95576 55.4004L7.30478 56.4479H7.30521C7.45534 56.9 7.74373 57.2927 8.13008 57.5713C8.51643 57.8495 8.98039 57.9992 9.45668 57.9988L22.8518 57.9967C25.0953 57.9611 27.212 56.9488 28.6471 55.224L31.2659 52.0815L31.2663 52.081C31.5806 51.7036 31.5556 51.1489 31.2082 50.8011L24.6332 44.2274Z" fill="#CA3C2F" stroke="#CA3C2F" stroke-width="0.3"/>
<path d="M49.6528 9.3466C44.4822 4.17647 37.5225 1.1917 30.2126 1.00887C22.9029 0.826512 15.8023 3.46057 10.3804 8.36655C4.95836 13.2725 1.62954 20.0746 1.08203 27.366L2.97687 27.5064C3.49469 20.6454 6.65083 14.2513 11.7823 9.66862C16.9139 5.0854 23.6217 2.66889 30.4973 2.92674C37.373 3.18459 43.8806 6.09682 48.6554 11.0516C53.4295 16.0063 56.0979 22.6184 56.0999 29.4984C56.1118 33.5901 55.1699 37.6283 53.3488 41.2922L55.0512 42.1357C57.6907 36.7917 58.5894 30.7545 57.6212 24.8733C56.653 18.9922 53.8662 13.5616 49.6528 9.3459V9.3466Z" fill="#4096FC" stroke="#4096FC" stroke-width="0.3"/>
<path d="M42.422 52.7543C42.0466 52.9634 41.8583 53.3981 41.9627 53.8145L42.4355 55.7051L35.0282 53.6848L40.4151 47.6245L40.7603 49.005V49.0054C40.8341 49.3014 41.0457 49.5436 41.329 49.6568C41.6119 49.7705 41.9325 49.7408 42.1899 49.5775C45.5844 47.4426 48.38 44.4803 50.3147 40.9679C52.2494 37.4555 53.2592 33.5094 53.2499 29.4998C53.2499 16.4043 42.5957 5.75049 29.5005 5.75049C24.1591 5.75091 18.9732 7.5512 14.7808 10.8612C10.5883 14.1708 7.63313 18.7969 6.39307 23.9926L8.24166 24.4319C9.37913 19.6981 12.0581 15.4772 15.8575 12.433C19.7215 9.3201 24.5383 7.63132 29.5002 7.65086C41.5481 7.65086 51.3496 17.4525 51.3496 29.5002C51.3581 32.9647 50.5392 36.3808 48.9607 39.4648C47.3818 42.5483 45.0896 45.2104 42.2739 47.2291L41.8214 45.4191C41.7362 45.0773 41.4686 44.8109 41.1263 44.727C40.7845 44.643 40.424 44.7554 40.1899 45.0183L32.5902 53.5681C32.3717 53.8136 32.2958 54.155 32.3896 54.4701C32.4833 54.7852 32.7331 55.0295 33.0503 55.1156L43.5 57.9655C43.8253 58.0546 44.1735 57.9638 44.4143 57.728C44.6552 57.4922 44.7532 57.1462 44.6714 56.8188L43.9792 54.0511H43.9797C48.0421 51.6478 51.448 48.2783 53.895 44.2418L52.2698 43.2574C49.8656 47.2236 46.4721 50.4964 42.4215 52.755L42.422 52.7543Z" fill="#4096FC" stroke="#4096FC" stroke-width="0.3"/>
<path d="M28.5508 9.54883H30.4507V11.4488H28.5508V9.54883Z" fill="#4096FC" stroke="#4096FC" stroke-width="0.3"/>
<path d="M18.7031 12.6966L20.3486 11.7466L21.2986 13.392L19.6531 14.342L18.7031 12.6966Z" fill="#4096FC" stroke="#4096FC" stroke-width="0.3"/>
<path d="M11.7485 20.3466L12.6985 18.7012L14.344 19.6511L13.394 21.2966L11.7485 20.3466Z" fill="#4096FC" stroke="#4096FC" stroke-width="0.3"/>
<path d="M44.6567 39.3461L45.6067 37.7007L47.2522 38.6507L46.3022 40.2961L44.6567 39.3461Z" fill="#4096FC" stroke="#4096FC" stroke-width="0.3"/>
<path d="M47.5498 28.5483H49.4498V30.4483H47.5498V28.5483Z" fill="#4096FC" stroke="#4096FC" stroke-width="0.3"/>
<path d="M44.6567 19.6516L46.3022 18.7017L47.2522 20.3471L45.6067 21.2971L44.6567 19.6516Z" fill="#4096FC" stroke="#4096FC" stroke-width="0.3"/>
<path d="M37.7026 13.3925L38.6526 11.7471L40.2981 12.697L39.3481 14.3425L37.7026 13.3925Z" fill="#4096FC" stroke="#4096FC" stroke-width="0.3"/>
<path d="M21.4121 23.9185L20.4893 25.5792L26.6908 29.0245C26.5593 29.7989 26.7536 30.5932 27.2273 31.2192C27.7014 31.8456 28.4131 32.2485 29.1938 32.3325C29.975 32.4165 30.7557 32.1739 31.352 31.6624L43.0318 38.5116L43.9928 36.8728L32.3022 30.0173C32.4578 29.1823 32.2313 28.3209 31.6847 27.6708L38.5126 16.0051L36.8739 15.0454L30.0494 26.7024C29.1787 26.5306 28.278 26.7753 27.6142 27.364L21.4121 23.9185ZM29.5004 28.5487C29.8847 28.5487 30.2312 28.7802 30.3779 29.1352C30.525 29.4902 30.444 29.8986 30.1722 30.1704C29.9004 30.4423 29.492 30.5233 29.137 30.3761C28.782 30.2294 28.5505 29.8829 28.5505 29.4987C28.5509 28.974 28.9758 28.5491 29.5004 28.5487Z" fill="#4096FC" stroke="#4096FC" stroke-width="0.3"/>
</svg>
