<svg width="59" height="59" viewBox="0 0 59 59" fill="none" xmlns="http://www.w3.org/2000/svg">
<path d="M39 32.35C37.4524 32.3483 35.9711 32.9764 34.8964 34.0901C33.8221 35.2033 33.2474 36.7064 33.3047 38.2531C33.3619 39.7994 34.046 41.2558 35.2 42.2868V47.55C35.2 47.9003 35.393 48.2226 35.7017 48.3876C36.0109 48.553 36.3858 48.5348 36.6772 48.3405L39.0001 46.79L41.323 48.3384C41.6139 48.5327 41.9888 48.5513 42.2976 48.3864C42.6063 48.2214 42.7993 47.9003 42.8001 47.55V42.2868C43.9541 41.2558 44.6382 39.7994 44.6955 38.2532C44.7527 36.7065 44.1781 35.2034 43.1038 34.0901C42.0291 32.9764 40.5477 32.3483 39.0001 32.35L39 32.35ZM40.9 45.7759L39.5271 44.8603V44.8598C39.2078 44.647 38.7922 44.647 38.4728 44.8598L37.0999 45.7759V43.4179C38.3278 43.861 39.6721 43.861 40.8999 43.4179L40.9 45.7759ZM39 41.8504C37.9924 41.8504 37.0258 41.4501 36.3129 40.7376C35.6004 40.0246 35.2 39.0581 35.2 38.0504C35.2 37.0428 35.6004 36.0762 36.3129 35.3633C37.0258 34.6508 37.9924 34.2504 39 34.2504C40.0077 34.2504 40.9743 34.6508 41.6872 35.3633C42.3997 36.0762 42.8 37.0428 42.8 38.0504C42.8 39.0581 42.3997 40.0247 41.6872 40.7376C40.9742 41.4501 40.0077 41.8504 39 41.8504Z" fill="#CA3C2F" stroke="#CA3C2F" stroke-width="0.3"/>
<path d="M22.85 10.5H35.2V12.4H22.85V10.5Z" fill="#CA3C2F" stroke="#CA3C2F" stroke-width="0.3"/>
<path d="M14.2999 16.2H44.6999V18.1H14.2999V16.2Z" fill="#4096FC" stroke="#4096FC" stroke-width="0.3"/>
<path d="M14.2999 21.9H35.1999V23.8H14.2999V21.9Z" fill="#4096FC" stroke="#4096FC" stroke-width="0.3"/>
<path d="M38.9999 21.9H44.6999V23.8H38.9999V21.9Z" fill="#4096FC" stroke="#4096FC" stroke-width="0.3"/>
<path d="M14.2999 27.6H44.6999V29.5H14.2999V27.6Z" fill="#4096FC" stroke="#4096FC" stroke-width="0.3"/>
<path d="M14.2999 33.3H25.6999V35.2H14.2999V33.3Z" fill="#4096FC" stroke="#4096FC" stroke-width="0.3"/>
<path d="M14.2999 38.05H19.0499V39.95H14.2999V38.05Z" fill="#4096FC" stroke="#4096FC" stroke-width="0.3"/>
<path d="M22.85 38.05H25.7V39.95H22.85V38.05Z" fill="#4096FC" stroke="#4096FC" stroke-width="0.3"/>
<path d="M53.25 1H13.35C12.0908 1.0017 10.8834 1.50257 9.99275 2.39275C9.10256 3.28338 8.60174 4.49079 8.6 5.75V50.4H1.95C1.42538 50.4 1 50.8254 1 51.35V53.25C1.0017 54.5092 1.50257 55.7166 2.39275 56.6072C3.28338 57.4974 4.49079 57.9983 5.75 58H45.65C46.9092 57.9983 48.1166 57.4974 49.0072 56.6072C49.8974 55.7166 50.3983 54.5092 50.4 53.25V8.6H57.05C57.3019 8.6 57.5437 8.49991 57.7218 8.32179C57.8999 8.14366 58 7.90192 58 7.65V5.75C57.9983 4.49079 57.4974 3.28337 56.6072 2.39275C55.7166 1.50256 54.5092 1.00174 53.25 1ZM9.55 56.1H5.75C4.99425 56.1 4.26898 55.7997 3.7347 55.2654C3.20042 54.731 2.90005 54.0057 2.90005 53.25V52.3001H40.9001V53.25C40.8988 54.2781 41.2321 55.2786 41.8501 56.1001L9.55 56.1ZM48.5 53.25C48.5 54.2683 47.9567 55.209 47.075 55.7183C46.1933 56.2272 45.1067 56.2272 44.225 55.7183C43.3433 55.2089 42.8 54.2683 42.8 53.25V51.35C42.8 51.0981 42.6999 50.8563 42.5218 50.6782C42.3437 50.5001 42.1019 50.4 41.85 50.4H10.5V5.75C10.5 4.99425 10.8003 4.26898 11.3346 3.7347C11.869 3.20042 12.5943 2.90005 13.3499 2.90005H49.4499C49.4232 2.9361 49.4033 2.97894 49.377 3.01583C49.321 3.09472 49.2727 3.17742 49.2214 3.26012H49.2209C49.1217 3.42001 49.0318 3.58541 48.952 3.7559C48.9084 3.8509 48.8676 3.9459 48.8303 4.0409H48.8307C48.7599 4.22539 48.701 4.41454 48.6539 4.60623C48.6318 4.69572 48.6047 4.78181 48.5873 4.87299C48.5309 5.16224 48.5016 5.45572 48.4999 5.75004L48.5 53.25ZM56.1 6.7H50.4V5.75C50.4 4.73172 50.9433 3.79105 51.825 3.28174C52.7067 2.77281 53.7933 2.77281 54.675 3.28174C55.5567 3.79109 56.1 4.73171 56.1 5.75V6.7Z" fill="#4096FC" stroke="#4096FC" stroke-width="0.3"/>
</svg>
