<svg width="52" height="60" viewBox="0 0 52 60" fill="none" xmlns="http://www.w3.org/2000/svg">
<path d="M45.7363 39.2008L45.81 39.0539C46.0487 38.5764 45.8897 37.9971 45.4406 37.7076C44.1753 36.8956 42.78 36.2874 41.2919 35.9037C40.8185 35.7811 40.3186 36.0077 40.097 36.4484L39.9753 36.6914C39.1834 36.5506 38.3775 36.4606 37.5628 36.4606C35.7049 36.4606 34.128 35.0876 33.8944 33.2674L33.7106 31.8347C34.2796 30.9785 34.745 30.0001 35.1563 28.9755C35.1316 29.0641 36.0139 29.1933 36.1109 29.1984C36.6706 29.2288 37.2064 29.0375 37.662 28.7195C38.6526 28.0279 39.4118 26.6671 39.6912 25.0772C39.8931 23.9346 39.8236 22.7981 39.4962 21.8779C39.1026 20.7722 38.3476 20.0438 37.4265 19.8824C37.087 19.8194 36.7484 19.8642 36.414 19.9561C36.3744 19.5349 36.3068 19.1231 36.2415 18.7086C37.5608 18.5794 38.6073 17.5007 38.6073 16.1473C38.6073 14.8918 37.7002 13.8907 36.518 13.6411V13.5357C36.518 9.81464 34.5266 6.36539 31.2808 4.49864C30.9594 4.30463 30.6139 4.12415 30.2501 3.96465V2.04465C30.2501 1.4673 29.7828 1 29.2055 1H22.9376C22.3602 1 21.8929 1.4673 21.8929 2.04465V3.96465C21.5292 4.12414 21.1836 4.30463 20.8222 4.52195C17.6164 6.36543 15.6251 9.81468 15.6251 13.5358V13.6412C14.4433 13.8907 13.5358 14.892 13.5358 16.1474C13.5358 17.5008 14.5823 18.5794 15.9021 18.7096C15.8368 19.1237 15.7691 19.535 15.7295 19.9566C15.3965 19.8656 15.0589 19.8209 14.7194 19.8833C13.796 20.0442 13.0414 20.7732 12.6474 21.8789C12.32 22.7991 12.2505 23.9356 12.4525 25.0782C12.7318 26.6675 13.491 28.0284 14.4816 28.72C15.1844 29.2106 16.1819 29.3762 16.9863 28.9737C17.3981 30.0006 17.8636 30.9791 18.433 31.8363L18.2492 33.2684C18.0151 35.0877 16.4383 36.4611 14.5804 36.4611C13.7662 36.4611 12.9616 36.5535 12.1694 36.6943L12.0467 36.449C11.8252 36.0064 11.3276 35.7798 10.8519 35.9043C9.36323 36.2881 7.96794 36.8958 6.70314 37.7081C6.25451 37.9977 6.095 38.5774 6.33378 39.0545L6.40793 39.2018C3.01886 41.743 1 45.6824 1 49.9206V58.4555C1 59.0328 1.4673 59.5001 2.04465 59.5001H50.0984C50.6758 59.5001 51.1431 59.0328 51.1431 58.4555V49.9206C51.1431 45.6856 49.1233 41.7425 45.7361 39.2009L45.7363 39.2008ZM37.0489 22.0125C37.3026 22.0559 37.4509 22.366 37.5269 22.5805C37.733 23.156 37.7717 23.9353 37.6341 24.7146C37.428 25.8777 36.8987 26.706 36.465 27.0081C36.3647 27.0781 36.2257 27.163 36.0993 27.1107C35.9926 27.0664 35.9268 26.9354 35.8676 26.844C35.7799 26.7083 36.1101 25.7961 36.1464 25.6063C36.2402 25.1157 36.3143 24.6209 36.3703 24.1242C36.4295 23.5963 36.3101 23.0278 36.4841 22.5144C36.5629 22.2812 36.735 21.9785 37.0489 22.0126L37.0489 22.0125ZM22.6303 5.92611C22.8411 5.83004 23.058 5.74049 23.2795 5.66494C23.6997 5.51991 23.9823 5.1221 23.9823 4.6772V3.08969H28.1609V4.6772C28.1609 5.12211 28.4435 5.51991 28.8637 5.66494C29.0852 5.74049 29.3021 5.8305 29.5129 5.92611C29.2746 6.71285 28.9775 7.47577 28.5489 8.18004C28.1903 8.76952 27.7934 9.30956 27.2356 9.73065C26.9917 9.91487 26.4676 10.3211 26.1388 10.3504C25.755 10.3845 25.1995 9.95218 24.9067 9.73065C24.1633 9.16916 23.6507 8.30265 23.2292 7.49164C23.1611 7.35966 22.4186 6.02209 22.6304 5.92611H22.6303ZM20.7771 7.08082C21.6781 9.72694 24.6502 13.906 27.9269 11.9529C29.2668 11.1541 30.1728 9.81003 30.8132 8.41976C30.8654 8.3069 31.4279 7.12798 31.3724 7.08273C33.284 8.64134 34.429 11.0104 34.429 13.5363H17.7146C17.7146 11.0585 18.8493 8.64182 20.7771 7.08094L20.7771 7.08082ZM15.6252 16.1478C15.6252 15.86 15.8598 15.6254 16.1476 15.6254H35.9959C36.2836 15.6254 36.5182 15.86 36.5182 16.1478C36.5182 16.4355 36.2836 16.6701 35.9959 16.6701H16.1476C15.8598 16.6701 15.6252 16.4355 15.6252 16.1478ZM15.9848 27.0816C15.8906 27.1044 15.7875 27.0848 15.6784 27.0088C15.2447 26.7071 14.7154 25.8784 14.5092 24.7153C14.3717 23.936 14.4104 23.1562 14.6165 22.5807C14.8553 21.9059 15.1701 21.8061 15.6551 22.3247C15.6891 23.9098 15.906 25.4251 16.2758 26.8441C16.196 26.9672 16.0967 27.054 15.9848 27.0815L15.9848 27.0816ZM17.7145 21.8933C17.7145 20.8268 17.8302 19.7816 18.0078 18.7594H34.136C34.3137 19.7835 34.4293 20.8277 34.4293 21.8933C34.4293 28.8061 30.6803 34.4291 26.0721 34.4291C21.464 34.4291 17.715 28.8061 17.715 21.8933H17.7145ZM20.2175 33.9981C21.8889 35.5874 23.9041 36.5178 26.0717 36.5178C28.2393 36.5178 30.2544 35.5874 31.9259 33.9981C32.3395 35.9208 33.7079 37.4641 35.4884 38.1542C31.7697 41.3792 28.2231 42.9461 24.9585 42.7852C22.0321 42.6406 19.1532 41.1128 16.3845 38.2489C18.2966 37.6161 19.7834 36.0174 20.2175 33.9981V33.9981ZM13.8684 38.5899C17.3106 42.5628 21.0046 44.6814 24.8558 44.87C29.4537 45.0947 33.6617 42.5433 36.9988 39.6154C37.1784 39.4578 37.9236 38.5703 38.1288 38.5801C38.4198 38.5941 38.7094 38.6095 38.9967 38.6445L34.8288 46.9644H17.3146L13.1458 38.6427C13.3846 38.6133 13.6266 38.6049 13.8682 38.59L13.8684 38.5899ZM11.4466 57.4103H3.08943V49.9201C3.08943 46.4686 4.6755 43.2483 7.35804 41.0975L11.4466 49.2593V57.4103ZM32.3396 57.4103H19.8038V53.5375C23.9684 54.5169 28.1749 54.5169 32.3396 53.5375V57.4103ZM38.6074 49.0125V57.4103H34.4289V52.187C34.4289 51.5043 33.7573 50.9806 33.0974 51.1829C28.4352 52.513 23.7078 52.513 19.0454 51.1829C18.3869 50.9955 17.714 51.5019 17.714 52.187V57.4103H13.5354V49.0125C13.5354 48.8493 13.4976 48.6902 13.4254 48.5452L8.63861 38.9904C9.2528 38.6621 9.89732 38.3846 10.5674 38.1622L15.7342 48.4762C15.9124 48.8307 16.2733 49.0531 16.6693 49.0531H35.4729C35.8689 49.0531 36.2298 48.8307 36.4075 48.4758L41.5743 38.1617C42.2444 38.3842 42.8894 38.6616 43.5031 38.99L38.7163 48.5447C38.6445 48.6898 38.6068 48.8488 38.6068 49.0125H38.6074ZM49.0539 57.4103H40.6967V49.2593L44.7853 41.0985C47.4669 43.2499 49.0539 46.4724 49.0539 49.9202V57.4103Z" fill="#4096FC" stroke="#4096FC" stroke-width="0.2"/>
<path fill-rule="evenodd" clip-rule="evenodd" d="M45.8143 39.2009L45.8886 39.0539C46.1292 38.5764 45.9689 37.9972 45.5164 37.7076C44.2415 36.8957 42.8355 36.2875 41.336 35.9038C40.859 35.7811 40.3553 36.0078 40.1321 36.4485L40.0094 36.6915L39.0233 38.6445L34.8237 46.9644H17.1759L12.9753 38.6427L11.9914 36.6943L11.8679 36.449C11.6446 36.0065 11.1432 35.7798 10.6639 35.9043C9.1639 36.2881 7.75797 36.8958 6.48352 37.7082C6.03146 37.9978 5.87075 38.5775 6.11134 39.0545L6.18606 39.2019L7.14341 41.0976L11.2632 49.2593V57.4103H13.3679V49.0125C13.3679 48.8493 13.3298 48.6903 13.257 48.5452L8.43375 38.9905C9.05263 38.6622 9.70206 38.3847 10.3773 38.1622L15.5835 48.4763C15.763 48.8307 16.1267 49.0532 16.5256 49.0532H35.4727C35.8717 49.0532 36.2354 48.8307 36.4144 48.4758L41.6206 38.1617C42.2958 38.3842 42.9458 38.6617 43.5641 38.99L38.7409 48.5448C38.6685 48.6898 38.6311 48.8488 38.6311 49.0125V57.4103H40.7363V49.2593L44.8561 41.0985L45.8143 39.2009ZM34.4207 57.4103V52.1871C34.4207 51.5043 33.744 50.9806 33.0791 51.183C28.3813 52.5131 23.6178 52.5131 18.9199 51.183C18.2564 50.9955 17.5784 51.502 17.5784 52.1871V57.4103H19.6841V53.5376C23.8805 54.5169 28.1191 54.5169 32.3154 53.5376V57.4103H34.4207Z" fill="#CA3C2F" stroke="#CA3C2F" stroke-width="0.2"/>
</svg>
