<svg width="51" height="58" viewBox="0 0 51 58" fill="none" xmlns="http://www.w3.org/2000/svg">
<path d="M2.94832 57.5009H45.8111C46.3277 57.5009 46.8235 57.2956 47.1888 56.9303C47.5541 56.565 47.7594 56.0692 47.7594 55.5525V45.811H48.7335C49.2354 45.8114 49.7181 45.6183 50.0812 45.2717C50.4439 44.9251 50.6592 44.4515 50.6818 43.9506V35.9817C50.6592 35.4807 50.4439 35.0071 50.0812 34.6605C49.7181 34.3139 49.2353 34.1208 48.7335 34.1212H47.7594V23.9122C47.7594 23.045 46.8922 22.4314 45.6454 22.4314H44.8369V16.226C44.8578 15.0314 44.4038 13.8775 43.5744 13.0174C42.7455 12.1567 41.6088 11.6609 40.4141 11.6379H39.9661V2.94831C39.9661 2.43166 39.7609 1.93588 39.3956 1.57058C39.0303 1.20527 38.5345 1 38.0178 1H19.5089C18.9923 1 18.4965 1.20527 18.1312 1.57058C17.7659 1.93588 17.5606 2.43166 17.5606 2.94831V6.84492H9.76738C9.25073 6.84492 8.75495 7.05019 8.38965 7.4155C8.02435 7.7808 7.81907 8.27658 7.81907 8.79323V11.6379H7.13717C5.55369 11.6627 4.03947 12.2885 2.89999 13.3883C1.76062 14.4877 1.08127 15.9794 1 17.5607V55.5527C1 56.0693 1.20527 56.5651 1.57058 56.9304C1.93588 57.2957 2.43166 57.501 2.94831 57.501L2.94832 57.5009ZM48.7335 43.8627H39.4791C38.3818 43.924 37.3051 43.5487 36.4836 42.8185C35.6621 42.0884 35.1633 41.0628 35.0954 39.9661C35.1632 38.8693 35.662 37.8439 36.4836 37.1137C37.3051 36.3834 38.3819 36.0082 39.4791 36.0695H48.7335V43.8627ZM45.6454 24.3796H45.8111V26.3279V27.33V28.2763V34.1212H39.4791C37.8652 34.0603 36.2931 34.6413 35.1068 35.7368C33.92 36.8319 33.2155 38.3527 33.1471 39.9661C33.2154 41.5795 33.9199 43.1003 35.1068 44.1954C36.2931 45.2908 37.8652 45.8719 39.4791 45.811H45.8111V51.6559L45.8111 52.6023L45.8111 53.6042V55.5525H2.94835V53.6042L2.94831 52.6023L2.94835 51.6559V28.2763V27.2743V26.3279V22.6553C4.06646 23.7543 5.56944 24.3732 7.13721 24.3796H45.6454ZM23.4058 8.79318H25.3541V22.4313H23.4058V8.79318ZM31.199 22.4313H27.3024V8.79318H31.199V22.4313ZM40.4143 13.5861C41.0922 13.6087 41.7333 13.8997 42.1973 14.3946C42.6614 14.8895 42.9097 15.5479 42.8888 16.2259V22.4313H39.9664V13.5861L40.4143 13.5861ZM19.5095 2.94826H38.0184V22.4313H33.1476V8.79318C33.1476 8.27654 32.9424 7.78075 32.5771 7.41545C32.2118 7.05015 31.716 6.84488 31.1993 6.84488H19.5095V2.94826ZM9.76795 8.79318H21.4578V22.4313H9.76795V8.79318ZM7.13774 13.5861H7.81964V22.4313H7.13774C5.99658 22.3983 4.915 21.9142 4.12955 21.0853C3.34457 20.2564 2.92015 19.15 2.94888 18.0085C2.92017 16.8673 3.34463 15.7609 4.12955 14.932C4.91496 14.1031 5.99658 13.6192 7.13774 13.5861Z" fill="#4096FC" stroke="#4096FC" stroke-width="0.3"/>
<path fill-rule="evenodd" clip-rule="evenodd" d="M7.7915 11.6379L7.79207 13.5861V22.4313H9.74038V8.79318H21.4302V22.4313H23.3782V8.79318H25.3265V22.4313H27.2748V8.79318H31.1714V22.4313H33.1201V8.79318C33.1201 8.27654 32.9148 7.78075 32.5495 7.41545C32.1842 7.05015 31.6884 6.84488 31.1718 6.84488H19.4819V2.94826H37.9908V22.4313L39.9388 22.4313V18.0087V13.5861L40.3867 13.5861C41.0647 13.6087 41.7057 13.8997 42.1698 14.3946C42.6338 14.8895 42.8821 15.5479 42.8612 16.2259V22.4313L44.8094 22.4314V16.226C44.8303 15.0314 44.3762 13.8775 43.5469 13.0174C42.718 12.1567 41.5812 11.6609 40.3865 11.6379H39.9386V2.94831C39.9386 2.43166 39.7333 1.93588 39.368 1.57058C39.0027 1.20527 38.5069 1 37.9903 1H19.4813C18.9647 1 18.4689 1.20527 18.1036 1.57058C17.7383 1.93588 17.533 2.43166 17.533 2.94831V6.84492H9.73981C9.22316 6.84492 8.72738 7.05019 8.36208 7.4155C7.99678 7.7808 7.7915 8.27658 7.7915 8.79323V11.6379Z" fill="#CA3C2F" stroke="#CA3C2F" stroke-width="0.3"/>
<path d="M40.9403 39.9661C40.9403 41.0421 40.0679 41.9144 38.992 41.9144C37.9161 41.9144 37.0437 41.0421 37.0437 39.9661C37.0437 38.8902 37.9161 38.0178 38.992 38.0178C40.0679 38.0178 40.9403 38.8902 40.9403 39.9661Z" fill="#CA3C2F"/>
<path d="M17.5606 10.7415C17.044 10.7415 16.5482 10.9468 16.1829 11.3121C15.8176 11.6774 15.6123 12.1732 15.6123 12.6898V14.6381C15.6123 15.3344 15.9837 15.9776 16.5865 16.3255C17.1892 16.6734 17.932 16.6734 18.5348 16.3255C19.1375 15.9776 19.5089 15.3344 19.5089 14.6381V12.6898C19.5089 12.1732 19.3036 11.6774 18.9383 11.3121C18.573 10.9468 18.0773 10.7415 17.5606 10.7415Z" fill="#CA3C2F"/>
</svg>
