<svg width="135" height="62" viewBox="0 0 135 62" fill="none" xmlns="http://www.w3.org/2000/svg">
<circle opacity="0.1" cx="43.1998" cy="5.4" r="5.4" fill="white"/>
<circle opacity="0.1" cx="19.44" cy="24.8399" r="5.4" fill="white"/>
<circle opacity="0.1" cx="5.4" cy="37.8" r="5.4" fill="white"/>
<circle opacity="0.1" cx="9.72031" cy="54" r="5.4" fill="white"/>
<circle opacity="0.1" cx="22.6803" cy="39.9601" r="5.4" fill="white"/>
<circle opacity="0.1" cx="33.4" cy="32.9601" r="5.4" fill="white"/>
<circle opacity="0.1" cx="61.5602" cy="38.88" r="5.4" fill="white"/>
<circle opacity="0.1" cx="44.2799" cy="46.44" r="5.4" fill="white"/>
<circle opacity="0.1" cx="60.4801" cy="25.92" r="5.4" fill="white"/>
<circle opacity="0.1" cx="48.0599" cy="22.14" r="9.18" fill="white"/>
<circle opacity="0.1" cx="43.7396" cy="36.18" r="9.18" fill="white"/>
<circle opacity="0.1" cx="25.3802" cy="51.3" r="9.18" fill="white"/>
<circle opacity="0.1" cx="50.18" cy="52.7401" r="9.18" fill="white"/>
<circle opacity="0.1" cx="65.18" cy="49.7401" r="9.18" fill="white"/>
<circle opacity="0.1" cx="69.6605" cy="29.7" r="9.18" fill="white"/>
<circle opacity="0.1" cx="83.6995" cy="26.46" r="9.18" fill="white"/>
<circle opacity="0.1" cx="79.3802" cy="43.7401" r="9.18" fill="white"/>
<circle opacity="0.1" cx="81.5404" cy="52.38" r="9.18" fill="white"/>
<circle opacity="0.1" cx="95.5804" cy="45.9" r="9.18" fill="white"/>
<circle opacity="0.1" cx="106.38" cy="37.26" r="9.18" fill="white"/>
<circle opacity="0.1" cx="107.46" cy="51.3" r="9.18" fill="white"/>
<circle opacity="0.1" cx="87.4802" cy="14.04" r="4.32" fill="white"/>
<circle opacity="0.1" cx="97.1999" cy="29.16" r="4.32" fill="white"/>
<circle opacity="0.1" cx="128.52" cy="30.24" r="4.32" fill="white"/>
<circle opacity="0.1" cx="124.32" cy="42.8801" r="4.32" fill="white"/>
<circle opacity="0.1" cx="93" cy="22.5601" r="3" fill="white"/>
<circle opacity="0.1" cx="104" cy="21.5601" r="3" fill="white"/>
<circle opacity="0.1" cx="74" cy="14.5601" r="3" fill="white"/>
<circle opacity="0.1" cx="42" cy="15.5601" r="3" fill="white"/>
<circle opacity="0.1" cx="119.88" cy="42.12" r="4.32" fill="white"/>
<circle opacity="0.1" cx="123.12" cy="52.92" r="4.32" fill="white"/>
<circle opacity="0.1" cx="130.68" cy="44.28" r="4.32" fill="white"/>
<circle opacity="0.1" cx="112.32" cy="29.8801" r="4.32" fill="white"/>
<circle opacity="0.1" cx="61.5602" cy="18.36" r="4.32" fill="white"/>
<circle opacity="0.1" cx="30.2399" cy="20.52" r="4.32" fill="white"/>
<circle opacity="0.1" cx="16.1999" cy="34.56" r="4.32" fill="white"/>
<circle opacity="0.1" cx="36.7204" cy="43.2" r="4.32" fill="white"/>
</svg>
