<svg width="1201" height="760" viewBox="0 0 1201 760" fill="none" xmlns="http://www.w3.org/2000/svg">
<g clip-path="url(#clip0_33_234)">
<path opacity="0.05" d="M3399.76 375.558C4033.08 1086.23 2750.59 2087.26 1987.91 1821C1225.23 1554.73 1750.64 1888.84 435.709 721.703C-879.225 -445.436 1194.79 -242.556 1873.98 -906.317C2553.16 -1570.08 2766.44 -335.115 3399.76 375.558Z" fill="#4096FC"/>
<path opacity="0.05" d="M3135.89 377.018C3665.47 970.64 2593.07 1806.8 1955.33 1584.39C1317.59 1361.98 1756.93 1641.06 657.397 666.151C-442.132 -308.753 1292.13 -139.288 1860.06 -693.725C2427.98 -1248.16 2606.32 -216.603 3135.89 377.018Z" fill="#4096FC"/>
<path opacity="0.05" d="M2820.83 378.74C3226.53 834.407 2404.98 1476.24 1916.42 1305.52C1427.86 1134.8 1764.43 1349.02 922.1 600.679C79.7708 -147.663 1408.36 -17.5804 1843.44 -443.169C2278.51 -868.757 2415.13 -76.9276 2820.83 378.74Z" fill="#4096FC"/>
<path opacity="0.05" d="M2558.28 380.192C2860.75 719.503 2248.24 1197.45 1884 1070.32C1519.75 943.19 1770.68 1102.71 1142.68 545.459C514.689 -11.7929 1505.21 85.0725 1829.58 -231.841C2153.95 -548.755 2255.81 40.8797 2558.28 380.192Z" fill="#4096FC"/>
</g>
<defs>
<clipPath id="clip0_33_234">
<rect width="1201" height="760" fill="white"/>
</clipPath>
</defs>
</svg>
