<svg viewBox="0 0 230 40" xmlns="http://www.w3.org/2000/svg">
<ellipse cx="30.211" cy="31.882" rx="7.9677" ry="7.8078" fill="#fff"/>
<path d="m25.231 12.362c0 6.8276-5.6482 12.362-12.616 12.362-6.9673 0-12.616-5.5348-12.616-12.362 0-6.8276 5.6482-12.362 12.616-12.362 6.9674 0 12.616 5.5348 12.616 12.362zm-20.043 0c0 4.0198 3.3254 7.2786 7.4276 7.2786 4.1022 0 7.4277-3.2588 7.4277-7.2786 0-4.0198-3.3255-7.2786-7.4277-7.2786-4.1021 0-7.4276 3.2587-7.4276 7.2786z" fill="#4096FC"/>
<path d="m60.422 12.362c0 6.8276-5.6482 12.362-12.616 12.362-6.9673 0-12.616-5.5348-12.616-12.362 0-6.8276 5.6482-12.362 12.616-12.362 6.9674 0 12.616 5.5348 12.616 12.362zm-20.043 0c0 4.0198 3.3255 7.2786 7.4276 7.2786 4.1022 0 7.4277-3.2588 7.4277-7.2786 0-4.0198-3.3255-7.2786-7.4277-7.2786-4.1021 0-7.4276 3.2587-7.4276 7.2786z" fill="#4096FC"/>
<path d="m35.689 14.64v-5.3679s-2.1579-1.6266-5.5608-1.6266c-3.4028 0-5.5608 1.6266-5.5608 1.6266v5.3679s2.324-1.7893 5.5608-1.7893c3.2369 0 5.5608 1.7893 5.5608 1.7893z" fill="#4096FC"/>
<path d="m88.645 26.928h1.7496l-5.6604-7.2613 5.3516-6.8579h-1.6466l-4.8783 6.3335h-3.2933v-6.3335h-1.482v14.119h1.482v-6.4747h3.2933l5.0841 6.4747z" fill="#fff"/>
<path d="m98.746 12.809h-5.3928v14.119h1.5232v-4.4576h3.8696c3.6637 0 5.8867-1.8154 5.8867-4.8207 0-3.0255-2.223-4.8409-5.8867-4.8409zm-0.0412 8.3505h-3.8284v-7.0596h3.8284c2.8819 0 4.4049 1.2909 4.4049 3.55 0 2.2187-1.523 3.5096-4.4049 3.5096z" fill="#fff"/>
<path d="m114.9 27.049c4.323 0 7.554-3.0457 7.554-7.1806s-3.231-7.1806-7.554-7.1806c-4.363 0-7.574 3.0659-7.574 7.1806s3.211 7.1806 7.574 7.1806zm0-1.3312c-3.478 0-6.072-2.481-6.072-5.8494s2.594-5.8494 6.072-5.8494c3.458 0 6.031 2.481 6.031 5.8494s-2.573 5.8494-6.031 5.8494z" fill="#fff"/>
<path d="m135.94 12.809h-11.63v1.2909h5.064v12.828h1.502v-12.828h5.064v-1.2909z" fill="#fff"/>
<path d="m145.24 27.291c2.511 0 4.59-0.8874 5.949-2.5212l-2.141-1.9364c-0.967 1.1094-2.182 1.6742-3.623 1.6742-2.696 0-4.61-1.8557-4.61-4.5182 0-2.6624 1.914-4.5181 4.61-4.5181 1.441 0 2.656 0.5648 3.623 1.654l2.141-1.9364c-1.359-1.6136-3.438-2.5011-5.928-2.5011-4.488 0-7.822 3.0457-7.822 7.3016s3.334 7.3016 7.801 7.3016z" fill="#4096FC"/>
<path d="m157.3 24.427v-3.2676h6.69v-2.5414h-6.69v-3.0659h7.575v-2.6221h-10.889v14.119h11.157v-2.6221h-7.843z" fill="#4096FC"/>
<path d="m174.69 12.93h-6.237v14.119h3.335v-3.8928h2.902c3.849 0 6.257-1.9566 6.257-5.1031 0-3.1667-2.408-5.1232-6.257-5.1232zm-0.185 7.5638h-2.717v-4.9014h2.717c2.038 0 3.067 0.9077 3.067 2.4608 0 1.5329-1.029 2.4406-3.067 2.4406z" fill="#4096FC"/>
<path d="m193.74 19.687c1.277-0.6051 2.038-1.6741 2.038-3.1062 0-2.3398-1.976-3.6508-5.31-3.6508h-6.71v14.119h7.101c3.643 0 5.598-1.5128 5.598-3.9735 0-1.7145-0.967-2.8844-2.717-3.3886zm-6.668-4.3366h3.108c1.44 0 2.202 0.6051 2.202 1.7144 0 1.1296-0.762 1.7145-2.202 1.7145h-3.108v-3.4289zm3.663 9.2783h-3.663v-3.5701h3.663c1.544 0 2.347 0.5647 2.347 1.7548 0 1.2303-0.803 1.8153-2.347 1.8153z" fill="#4096FC"/>
<path d="m199.72 27.049h3.149l6.875-9.1774v9.1774h3.293v-14.119h-3.128l-6.875 9.1976v-9.1976h-3.314v14.119z" fill="#4096FC"/>
<path d="m224.05 27.291c2.512 0 4.59-0.8874 5.949-2.5212l-2.141-1.9364c-0.967 1.1094-2.182 1.6742-3.622 1.6742-2.697 0-4.611-1.8557-4.611-4.5182 0-2.6624 1.914-4.5181 4.611-4.5181 1.44 0 2.655 0.5648 3.622 1.654l2.141-1.9364c-1.359-1.6136-3.437-2.5011-5.928-2.5011-4.487 0-7.822 3.0457-7.822 7.3016s3.335 7.3016 7.801 7.3016z" fill="#4096FC"/>
</svg>

