<svg width="230" height="40" viewBox="0 0 230 40" fill="none" xmlns="http://www.w3.org/2000/svg">
<ellipse cx="30.2109" cy="31.882" rx="7.96771" ry="7.80783" fill="#212121"/>
<path d="M25.2311 12.3624C25.2311 19.19 19.5829 24.7248 12.6155 24.7248C5.64817 24.7248 0 19.19 0 12.3624C0 5.53483 5.64817 0 12.6155 0C19.5829 0 25.2311 5.53483 25.2311 12.3624ZM5.18793 12.3624C5.18793 16.3822 8.51338 19.641 12.6155 19.641C16.7177 19.641 20.0432 16.3822 20.0432 12.3624C20.0432 8.34255 16.7177 5.08382 12.6155 5.08382C8.51338 5.08382 5.18793 8.34255 5.18793 12.3624Z" fill="#4096FC"/>
<path d="M60.4218 12.3624C60.4218 19.19 54.7736 24.7248 47.8062 24.7248C40.8388 24.7248 35.1907 19.19 35.1907 12.3624C35.1907 5.53483 40.8388 0 47.8062 0C54.7736 0 60.4218 5.53483 60.4218 12.3624ZM40.3786 12.3624C40.3786 16.3822 43.7041 19.641 47.8062 19.641C51.9084 19.641 55.2338 16.3822 55.2338 12.3624C55.2338 8.34255 51.9084 5.08382 47.8062 5.08382C43.7041 5.08382 40.3786 8.34255 40.3786 12.3624Z" fill="#4096FC"/>
<path d="M35.6887 14.6398V9.27189C35.6887 9.27189 33.5308 7.64526 30.1279 7.64526C26.7251 7.64526 24.5671 9.27189 24.5671 9.27189V14.6398C24.5671 14.6398 26.8911 12.8505 30.1279 12.8505C33.3648 12.8505 35.6887 14.6398 35.6887 14.6398Z" fill="#4096FC"/>
<path d="M88.6455 26.9277H90.3951L84.7347 19.6664L90.0863 12.8085H88.4397L83.5614 19.142H80.2681V12.8085H78.7861V26.9277H80.2681V20.453H83.5614L88.6455 26.9277Z" fill="#212121"/>
<path d="M98.7464 12.8085H93.3536V26.9277H94.8768V22.4701H98.7464C102.41 22.4701 104.633 20.6547 104.633 17.6494C104.633 14.6238 102.41 12.8085 98.7464 12.8085ZM98.7053 21.159H94.8768V14.0994H98.7053C101.587 14.0994 103.11 15.3903 103.11 17.6494C103.11 19.8681 101.587 21.159 98.7053 21.159Z" fill="#212121"/>
<path d="M114.903 27.0487C119.226 27.0487 122.458 24.003 122.458 19.8681C122.458 15.7332 119.226 12.6875 114.903 12.6875C110.54 12.6875 107.329 15.7534 107.329 19.8681C107.329 23.9828 110.54 27.0487 114.903 27.0487ZM114.903 25.7175C111.425 25.7175 108.831 23.2365 108.831 19.8681C108.831 16.4997 111.425 14.0187 114.903 14.0187C118.361 14.0187 120.934 16.4997 120.934 19.8681C120.934 23.2365 118.361 25.7175 114.903 25.7175Z" fill="#212121"/>
<path d="M135.936 12.8085H124.306V14.0994H129.37V26.9277H130.872V14.0994H135.936V12.8085Z" fill="#212121"/>
<path d="M145.244 27.2907C147.755 27.2907 149.834 26.4032 151.192 24.7695L149.052 22.8331C148.084 23.9425 146.87 24.5072 145.429 24.5072C142.733 24.5072 140.819 22.6516 140.819 19.9891C140.819 17.3266 142.733 15.471 145.429 15.471C146.87 15.471 148.084 16.0358 149.052 17.1249L151.192 15.1886C149.834 13.575 147.755 12.6875 145.265 12.6875C140.777 12.6875 137.443 15.7332 137.443 19.9891C137.443 24.245 140.777 27.2907 145.244 27.2907Z" fill="#4096FC"/>
<path d="M157.297 24.4266V21.159H163.987V18.6175H157.297V15.5517H164.872V12.9295H153.983V27.0487H165.139V24.4266H157.297Z" fill="#4096FC"/>
<path d="M174.687 12.9295H168.45V27.0487H171.785V23.1558H174.687C178.536 23.1558 180.944 21.1993 180.944 18.0528C180.944 14.8861 178.536 12.9295 174.687 12.9295ZM174.502 20.4934H171.785V15.592H174.502C176.539 15.592 177.569 16.4997 177.569 18.0528C177.569 19.5857 176.539 20.4934 174.502 20.4934Z" fill="#4096FC"/>
<path d="M193.744 19.6866C195.021 19.0815 195.782 18.0124 195.782 16.5804C195.782 14.2406 193.806 12.9295 190.472 12.9295H183.761V27.0487H190.863C194.506 27.0487 196.461 25.5359 196.461 23.0752C196.461 21.3607 195.494 20.1908 193.744 19.6866ZM187.075 15.35H190.183C191.624 15.35 192.386 15.9551 192.386 17.0644C192.386 18.194 191.624 18.7789 190.183 18.7789H187.075V15.35ZM190.739 24.6283H187.075V21.0581H190.739C192.283 21.0581 193.086 21.6229 193.086 22.8129C193.086 24.0433 192.283 24.6283 190.739 24.6283Z" fill="#4096FC"/>
<path d="M199.716 27.0487H202.865L209.74 17.8712V27.0487H213.033V12.9295H209.905L203.03 22.1272V12.9295H199.716V27.0487Z" fill="#4096FC"/>
<path d="M224.051 27.2907C226.562 27.2907 228.641 26.4032 230 24.7695L227.859 22.8331C226.892 23.9425 225.677 24.5072 224.237 24.5072C221.54 24.5072 219.626 22.6516 219.626 19.9891C219.626 17.3266 221.54 15.471 224.237 15.471C225.677 15.471 226.892 16.0358 227.859 17.1249L230 15.1886C228.641 13.575 226.562 12.6875 224.072 12.6875C219.585 12.6875 216.25 15.7332 216.25 19.9891C216.25 24.245 219.585 27.2907 224.051 27.2907Z" fill="#4096FC"/>
</svg>
