<svg width="14" height="14" viewBox="0 0 14 14" fill="none" xmlns="http://www.w3.org/2000/svg">
<path fill-rule="evenodd" clip-rule="evenodd" d="M0.00033241 2.99563C0.00033241 2.99563 -0.0296676 2.19063 0.480332 1.14963C0.840332 0.41263 2.24433 0.00662979 2.24433 0.00662979C2.24433 0.00662979 2.84433 -0.14637 4.04933 1.01763C4.52933 1.46163 4.83333 2.06163 4.90933 2.71063C4.95233 3.30263 3.68933 4.56463 3.68933 4.56463C3.78833 5.28963 4.09033 5.97163 4.56233 6.52963C5.13512 7.18724 5.73532 7.82047 6.36133 8.42763C6.74533 8.78763 7.17333 9.25763 7.74433 9.63663C8.86533 10.3796 9.13433 10.3126 9.13433 10.3126C9.13433 10.3126 10.7323 8.97363 11.2103 9.02063C11.5743 9.05663 12.0893 9.29663 12.7473 9.85763C13.2363 10.2736 13.5493 10.5876 13.7943 11.0076C13.8823 11.1536 13.9503 11.3076 13.9993 11.4706C13.9993 11.4706 14.0633 12.1346 13.0323 13.1916C12.0053 14.2416 10.5903 13.9666 10.5903 13.9666C10.5903 13.9666 9.77633 13.8466 8.44533 13.2196C6.97103 12.5008 5.62773 11.5398 4.47133 10.3766C3.39033 9.26163 1.97733 7.55663 1.28933 6.36963C0.423332 4.87763 0.00033241 2.99563 0.00033241 2.99563Z" fill="white"/>
</svg>
