<svg width="134" height="161" viewBox="0 0 134 161" fill="none" xmlns="http://www.w3.org/2000/svg">
<path opacity="0.2" d="M16.3282 129.912C19.0628 132.787 21.6467 134.643 23.6916 136.109C47.7099 153.342 76.1287 148.32 82.1661 147.091C91.0837 145.28 108.326 141.778 120.79 127.119C139.645 104.941 136.711 70.0044 122.082 46.9429C119.405 42.727 105.276 19.3158 76.5513 15.5612C59.1678 13.2881 38.904 17.8732 24.2259 30.1665C-6.57781 55.9722 -4.3824 108.108 16.3282 129.912Z" fill="white"/>
<path d="M87.9709 83.7701C88.7918 81.5926 89.1411 79.0017 88.6055 75.9799C91.9125 75.4035 94.9983 74.2216 97.7057 72.3469C98.0259 76.9988 96.7916 82.1341 92.5122 87.2227C90.4337 89.6972 87.639 92.16 83.9535 94.5529L82.8706 96.8702L79.6101 92.8062C79.6043 92.8062 85.6478 89.9417 87.9709 83.7701Z" fill="url(#paint0_linear_22_91)"/>
<path d="M42.0916 63.5387C45.4336 64.1267 48.3622 63.6842 50.9472 62.7294C51.0171 63.3058 51.1103 63.8822 51.2442 64.4644C51.8089 67.0087 52.5891 69.4715 53.6779 71.7364C48.6707 72.4758 44.1469 71.0261 40.77 69.291C40.7234 66.933 41.3696 64.9768 42.0916 63.5387Z" fill="url(#paint1_linear_22_91)"/>
<path d="M50.948 62.7293C55.2914 61.1165 58.6741 58.0365 61.4513 55.8474C67.3027 51.242 71.7451 53.6233 71.7451 53.6233L65.3697 65.6753C61.3873 69.4249 57.4049 71.1832 53.6845 71.7363C52.5957 69.4656 51.8155 67.0028 51.2508 64.4643C51.111 63.8763 51.012 63.2999 50.948 62.7293Z" fill="white"/>
<path d="M29.5685 57.7337L32.5146 59.4512C36.0429 61.7743 39.2218 63.0319 42.0922 63.5326C41.3702 64.9707 40.7298 66.927 40.7764 69.2792C37.0385 67.3579 34.7096 65.0872 34.7096 65.0872C28.0373 60.7904 29.5685 57.7337 29.5685 57.7337Z" fill="url(#paint2_linear_22_91)"/>
<path d="M63.1281 141.813C63.0816 141.586 63.035 141.359 62.9826 141.132L38.925 40.1097L28.6255 42.0951L43.8856 144.817C43.9205 145.044 43.9613 145.277 44.002 145.504L44.6658 148.939C45.8011 154.837 49.9466 158.994 53.9232 158.226L58.6508 157.312C62.6274 156.543 64.9272 151.14 63.7919 145.248L63.1281 141.813ZM55.0643 151.425C52.4268 151.932 49.5914 148.747 48.7355 144.31C47.8797 139.868 49.3236 135.857 51.9611 135.35C54.5985 134.843 57.434 138.028 58.2898 142.465C59.1457 146.907 57.7076 150.919 55.0643 151.425Z" fill="#FF6161"/>
<path d="M42.6921 0.494778C40.0546 -1.05976 36.8175 1.28078 37.3939 4.29088L41.2424 24.2321C41.516 25.6527 41.1143 27.1199 40.1594 28.2029L35.2513 33.7573C33.8481 35.3409 31.56 35.7834 29.6677 34.8344L23.0478 31.5041C21.7553 30.852 20.8412 29.641 20.5617 28.2203L16.7132 8.27912C16.131 5.26902 12.2534 4.30253 10.3845 6.72458C5.90715 12.5235 3.85189 20.2846 5.38314 28.2203C8.14871 42.5605 21.2371 50.2634 35.03 47.6026C48.8229 44.9418 58.0978 32.9189 55.3322 18.5787C53.801 10.6546 49.0092 4.2152 42.6921 0.494778Z" fill="#FF6161"/>
<path d="M40.8112 0.855969C38.1738 -0.698571 34.9366 1.64197 35.513 4.65207L39.3615 24.5933C39.6352 26.0139 39.2334 27.4811 38.2786 28.564L33.3704 34.1185C31.9673 35.7021 29.6791 36.1446 27.7869 35.1956L21.167 31.8653C19.8744 31.219 18.9604 30.0021 18.6809 28.5815L14.8324 8.64614C14.2502 5.63604 10.3725 4.66954 8.50359 7.0916C4.02628 12.8906 1.97103 20.6516 3.50229 28.5873C6.26785 42.9275 19.3563 50.6304 33.1492 47.9696C46.9421 45.3088 56.2169 33.2859 53.4513 18.9457C51.9201 11.0158 47.1284 4.57639 40.8112 0.855969Z" fill="#EB2F2F"/>
<path d="M61.632 142.103C61.5854 141.876 61.5388 141.649 61.4864 141.422L37.4231 40.3945L27.1235 42.3799L42.3836 145.102C42.4186 145.329 42.4593 145.562 42.5001 145.789L43.1638 149.224C44.2992 155.122 48.4446 159.279 52.4212 158.51L57.1489 157.596C61.1255 156.828 63.4253 151.425 62.2899 145.533L61.632 142.103ZM53.5682 151.716C50.9307 152.222 48.0953 149.038 47.2394 144.601C46.3835 140.159 47.8275 136.147 50.4649 135.641C53.1024 135.134 55.9378 138.319 56.7937 142.755C57.6496 147.192 56.2057 151.204 53.5682 151.716Z" fill="#EB2F2F"/>
<path d="M29.1787 62.1818C29.0681 61.5355 29.2602 60.8834 29.6852 60.3885C30.512 59.4278 31.9443 58.1178 32.9806 59.0028C34.5235 60.3187 32.8351 64.8251 32.8351 64.8251L31.1233 67.4393L31.1 69.1103C30.1743 68.0273 29.6154 65.3607 29.1787 62.1818Z" fill="url(#paint3_linear_22_91)"/>
<path d="M68.6829 159.279C68.6829 159.209 68.6887 159.133 68.7061 159.064C69.8706 154.802 75.2795 152.234 75.2795 152.234L77.4046 152.444C78.5574 156.246 78.3536 158.557 78.1382 159.582C78.1324 159.611 78.1207 159.64 78.1149 159.663C76.3624 159.786 72.7468 159.821 68.6829 159.279Z" fill="url(#paint4_linear_22_91)"/>
<path d="M78.1144 159.663C78.0154 160.007 77.7534 160.269 77.4274 160.333C74.9238 160.81 70.9647 160.315 69.3053 160.065C68.9385 160.013 68.6765 159.663 68.6765 159.285C72.7463 159.82 76.3619 159.785 78.1144 159.663Z" fill="url(#paint5_linear_22_91)"/>
<path d="M78.3179 149.288L77.3339 153.602C77.264 153.917 77.0137 154.149 76.7167 154.173C76.3558 154.202 75.8376 154.208 75.3252 154.126C74.8594 154.05 74.545 153.573 74.6382 153.067L75.3369 149.23L78.3179 149.288Z" fill="url(#paint6_linear_22_91)"/>
<path d="M59.4717 159.268C61.818 159.244 63.0407 158.994 63.6695 158.749C63.6695 158.982 63.6637 159.221 63.6462 159.466C63.6346 159.728 63.4366 159.937 63.1979 159.931L50.3075 159.605C49.8941 159.594 49.667 159.11 49.8475 158.738C51.5418 158.907 55.8444 159.302 59.4717 159.268Z" fill="url(#paint7_linear_22_91)"/>
<path d="M49.853 158.738C49.8705 158.703 49.8821 158.674 49.9054 158.639C51.0757 157.073 54.0334 153.958 59.7858 152.694L62.5339 152.659C62.5339 152.659 63.7158 154.808 63.6634 158.749C63.0288 158.994 61.8119 159.25 59.4656 159.268C55.8441 159.303 51.5415 158.907 49.853 158.738Z" fill="url(#paint8_linear_22_91)"/>
<path d="M63.1283 148.502C63.0933 148.706 62.6567 151.815 62.4878 153.02C62.4471 153.305 62.2375 153.526 61.9755 153.55C61.5039 153.596 60.747 153.631 60.089 153.486C59.7339 153.404 59.4835 153.055 59.4894 152.659L59.5825 147.774L63.1283 148.502Z" fill="url(#paint9_linear_22_91)"/>
<path d="M66.656 90.0004C66.656 90.0004 59.0172 121.714 58.5398 153.416C58.534 153.993 62.9531 154.505 63.0521 153.969C64.0826 148.537 70.8888 113.15 74.0212 108.224C74.0212 108.224 73.9513 139.414 73.043 153.591C73.0197 153.946 77.0313 155.099 77.8697 154.197C77.8697 154.197 83.5231 119.682 83.7501 98.0176C83.7618 96.8998 81.7473 90.0004 81.7473 90.0004H66.656Z" fill="#1882FF"/>
<path d="M61.0027 56.2659C61.4801 55.6603 60.8804 57.4943 61.0027 56.2659V56.2659Z" fill="url(#paint10_linear_22_91)"/>
<path d="M61.0022 56.2661C61.0138 56.1496 61.0313 56.0099 61.0546 55.841C69.4095 50.0479 81.7701 53.2909 86.5619 53.9896C88.1339 54.2166 89.5603 55.0201 90.5734 56.2428C93.0129 59.1772 97.2049 65.1916 97.6998 72.3529C94.9925 74.2335 91.9067 75.4096 88.5996 75.986C88.326 74.4373 87.8136 72.7838 87.016 71.008C86.9228 71.4155 86.8122 71.8231 86.6783 72.2248C83.0801 82.9203 81.1996 89.0278 81.1705 91.0947C81.1646 91.3742 64.6818 90.693 67.5988 90.6057C68.8215 90.5707 61.9163 66.2163 58.3065 61.8962C58.0969 61.6283 61.4796 55.6605 61.0022 56.2661Z" fill="white"/>
<path d="M79.0052 45.1922L79.698 54.0129C79.698 54.0129 74.72 55.4103 71.1626 52.8019L73.8467 44.8487L79.0052 45.1922Z" fill="url(#paint11_linear_22_91)"/>
<path d="M73.4448 35.0494C73.3225 35.16 68.228 44.7085 68.228 44.7085L73.7417 47.5032L79.9133 39.1657C79.9191 39.1657 75.4767 33.2096 73.4448 35.0494Z" fill="url(#paint12_linear_22_91)"/>
<path d="M75.3021 37.0936C76.5365 37.2741 77.1944 38.6423 77.4564 39.3527C77.5495 39.6088 77.5204 39.8999 77.3749 40.1328L74.5103 44.7091C74.4695 44.779 74.4172 44.843 74.3531 44.8954C74.0154 45.1982 72.8684 46.0715 72.0184 44.8372C71.2906 43.7834 70.6094 42.8285 69.87 42.4268C69.4391 42.1939 68.8977 42.3628 68.6648 42.7994C68.1932 43.6961 67.2674 45.5301 66.6794 47.2709C66.5338 47.7076 66.7492 48.185 67.1743 48.3655C68.2921 48.8429 70.5046 49.7104 72.4783 50.019C72.8044 50.0714 73.1246 49.9375 73.3226 49.6755C74.1959 48.5285 76.6529 45.3146 77.4855 44.517C78.2598 43.7717 79.6572 44.0861 80.286 44.2783C80.5247 44.354 80.7809 44.3249 80.9963 44.1968C81.6426 43.8241 82.7837 42.8809 81.7881 41.2332C81.5436 40.8257 81.6833 40.2842 82.0851 40.0339C82.807 39.5739 83.6047 38.7064 82.8885 37.2625C81.9861 35.4343 79.4359 35.609 78.0037 34.264C77.2992 33.6003 76.6005 32.8609 75.6864 32.5523C75.4885 32.4882 75.2847 32.4417 75.0751 32.4417C74.1726 32.4591 72.8102 33.9438 72.7462 34.8404C72.6588 36.1213 74.225 36.9364 75.3021 37.0936Z" fill="url(#paint13_linear_22_91)"/>
<path d="M76.4084 46.1933C76.4084 46.1933 77.538 43.09 78.9004 43.2297C80.2628 43.3695 81.3166 44.7552 79.5932 46.2515C77.4506 48.1146 76.4084 46.1933 76.4084 46.1933Z" fill="url(#paint14_linear_22_91)"/>
<path d="M87.4819 70.2045C89.3742 65.308 88.8327 59.3402 88.8327 59.282L88.3378 59.3286C88.3436 59.3868 88.8734 65.2381 87.022 70.024L87.4819 70.2045Z" fill="#DADADA"/>
<path opacity="0.3" d="M74.277 107.589C74.3876 107.589 74.4925 107.519 74.5216 107.409C75.1096 105.301 79.2725 103.048 79.3133 103.024C79.4355 102.96 79.4821 102.809 79.4181 102.687C79.354 102.565 79.2026 102.518 79.0804 102.582C78.8999 102.675 74.6904 104.957 74.0441 107.275C74.0092 107.409 74.0849 107.548 74.2188 107.583C74.2363 107.583 74.2596 107.589 74.277 107.589Z" fill="white"/>
<path d="M86.2194 74.5189C86.2485 74.3792 86.2194 74.2336 86.1379 74.1172L79.9896 64.8482C79.943 64.7841 79.8731 64.7434 79.7916 64.7434H68.5314C68.3451 64.7434 68.1762 64.8424 68.0831 64.9996L62.7324 74.059C62.6393 74.2162 62.6043 74.4025 62.6393 74.583C64.7586 81.0166 66.808 87.3453 66.6624 90.4311C70.4993 93.4296 77.2531 92.8008 81.8643 91.4267C82.0972 87.3977 84.071 81.0748 86.2194 74.5189Z" fill="#4096FC"/>
<path d="M84.053 53.6578L79.9192 65.5352H77.4331L81.1069 53.1629C81.1419 53.0407 81.2641 52.965 81.3922 52.9941L83.9831 53.5297C84.0414 53.5414 84.0763 53.6054 84.053 53.6578Z" fill="#4096FC"/>
<path d="M69.8933 52.825L70.9064 65.2148L68.6124 65.4942L66.6562 53.1394C66.6445 53.0521 66.7085 52.9647 66.7959 52.9589L69.7361 52.6911C69.8176 52.6853 69.8875 52.7435 69.8933 52.825Z" fill="#4096FC"/>
<path d="M70.2954 35.6617C75.2036 26.3869 87.9252 34.8117 82.004 42.6251C77.6082 39.6965 72.6301 35.3473 70.2954 35.6617Z" fill="#EB2F2F"/>
<path d="M70.6158 34.6604C60.6888 34.1539 68.8633 37.8336 77.8994 39.8015C75.652 37.4144 73.4046 35.6327 70.6158 34.6604Z" fill="#FF6161"/>
<defs>
<linearGradient id="paint0_linear_22_91" x1="84.8752" y1="45.5678" x2="89.8591" y2="94.3684" gradientUnits="userSpaceOnUse">
<stop stop-color="#FEBBBA"/>
<stop offset="1" stop-color="#FF928E"/>
</linearGradient>
<linearGradient id="paint1_linear_22_91" x1="46.6465" y1="64.8522" x2="52.0525" y2="117.786" gradientUnits="userSpaceOnUse">
<stop stop-color="#FEBBBA"/>
<stop offset="1" stop-color="#FF928E"/>
</linearGradient>
<linearGradient id="paint2_linear_22_91" x1="20.4275" y1="41.3594" x2="61.5319" y2="96.0487" gradientUnits="userSpaceOnUse">
<stop stop-color="#FEBBBA"/>
<stop offset="1" stop-color="#FF928E"/>
</linearGradient>
<linearGradient id="paint3_linear_22_91" x1="45.5028" y1="58.2607" x2="65.5822" y2="50.1517" gradientUnits="userSpaceOnUse">
<stop stop-color="#FEBBBA"/>
<stop offset="1" stop-color="#FF928E"/>
</linearGradient>
<linearGradient id="paint4_linear_22_91" x1="68.6814" y1="155.987" x2="78.3064" y2="155.987" gradientUnits="userSpaceOnUse">
<stop stop-color="#4F52FF"/>
<stop offset="1" stop-color="#4042E2"/>
</linearGradient>
<linearGradient id="paint5_linear_22_91" x1="73.863" y1="134.902" x2="73.5455" y2="151.696" gradientUnits="userSpaceOnUse">
<stop stop-color="#09005D"/>
<stop offset="1" stop-color="#1A0F91"/>
</linearGradient>
<linearGradient id="paint6_linear_22_91" x1="75.8784" y1="145.072" x2="77.4089" y2="161.103" gradientUnits="userSpaceOnUse">
<stop stop-color="#FEBBBA"/>
<stop offset="1" stop-color="#FF928E"/>
</linearGradient>
<linearGradient id="paint7_linear_22_91" x1="57.1918" y1="134.587" x2="56.8743" y2="151.381" gradientUnits="userSpaceOnUse">
<stop stop-color="#09005D"/>
<stop offset="1" stop-color="#1A0F91"/>
</linearGradient>
<linearGradient id="paint8_linear_22_91" x1="49.8557" y1="155.965" x2="63.6745" y2="155.965" gradientUnits="userSpaceOnUse">
<stop stop-color="#4F52FF"/>
<stop offset="1" stop-color="#4042E2"/>
</linearGradient>
<linearGradient id="paint9_linear_22_91" x1="60.9163" y1="146.5" x2="62.4469" y2="162.531" gradientUnits="userSpaceOnUse">
<stop stop-color="#FEBBBA"/>
<stop offset="1" stop-color="#FF928E"/>
</linearGradient>
<linearGradient id="paint10_linear_22_91" x1="61.0682" y1="56.1929" x2="61.187" y2="57.356" gradientUnits="userSpaceOnUse">
<stop stop-color="#FDF53F"/>
<stop offset="0.6645" stop-color="#E57A58"/>
<stop offset="1" stop-color="#D93C65"/>
</linearGradient>
<linearGradient id="paint11_linear_22_91" x1="73.7603" y1="42.7357" x2="80.187" y2="73.1107" gradientUnits="userSpaceOnUse">
<stop stop-color="#FEBBBA"/>
<stop offset="1" stop-color="#FF928E"/>
</linearGradient>
<linearGradient id="paint12_linear_22_91" x1="74.1112" y1="37.6274" x2="74.3043" y2="13.6866" gradientUnits="userSpaceOnUse">
<stop stop-color="#FEBBBA"/>
<stop offset="1" stop-color="#FF928E"/>
</linearGradient>
<linearGradient id="paint13_linear_22_91" x1="66.6327" y1="41.2328" x2="83.1714" y2="41.2328" gradientUnits="userSpaceOnUse">
<stop stop-color="#4F52FF"/>
<stop offset="1" stop-color="#4042E2"/>
</linearGradient>
<linearGradient id="paint14_linear_22_91" x1="77.6048" y1="59.1144" x2="78.4877" y2="44.8723" gradientUnits="userSpaceOnUse">
<stop stop-color="#FEBBBA"/>
<stop offset="1" stop-color="#FF928E"/>
</linearGradient>
</defs>
</svg>
