<svg width="564" height="727" viewBox="0 0 564 727" fill="none" xmlns="http://www.w3.org/2000/svg">
<path opacity="0.2" d="M122.79 525.845C133.032 536.615 142.711 543.565 150.37 549.059C240.334 613.608 346.781 594.796 369.395 590.193C402.798 583.407 467.383 570.29 514.066 515.384C584.691 432.315 573.702 301.453 518.905 215.073C508.881 199.281 455.957 111.591 348.364 97.528C283.252 89.0137 207.351 106.188 152.372 152.234C36.9918 248.893 45.215 444.177 122.79 525.845Z" fill="white"/>
<path d="M348.983 435.698C348.473 436.244 349.219 437.026 349.802 436.553C370.996 419.106 452.119 334.491 475.624 172.682C475.697 172.155 474.933 172.009 474.805 172.519C465.964 210.214 429.05 349.336 348.983 435.698Z" fill="white"/>
<path d="M445.478 726.014H472.131V227.88C472.131 205.703 454.102 187.674 431.924 187.674H404.217C396.739 187.674 390.645 181.579 390.645 174.102V0H364.01V174.084C364.01 196.261 382.058 214.29 404.217 214.29H431.906C439.384 214.29 445.478 220.385 445.478 227.862V726.014Z" fill="url(#paint0_linear_18_146)"/>
<path d="M359.662 162.477H395.156V168.553H359.662V162.477Z" fill="url(#paint1_linear_18_146)"/>
<path d="M416.897 182.943V218.438H422.974V182.943H416.897Z" fill="url(#paint2_linear_18_146)"/>
<path d="M476.697 239.561H441.203V245.637H476.697V239.561Z" fill="url(#paint3_linear_18_146)"/>
<path d="M342.064 371.228C345.368 362.462 346.775 352.032 344.618 339.868C357.931 337.547 370.354 332.789 381.252 325.242C382.542 343.969 377.573 364.642 360.346 385.127C351.978 395.088 340.728 405.003 325.891 414.636L321.532 423.964L308.406 407.604C308.383 407.604 332.712 396.073 342.064 371.228Z" fill="url(#paint4_linear_18_146)"/>
<path d="M157.37 289.781C170.824 292.149 182.613 290.367 193.02 286.523C193.301 288.844 193.676 291.164 194.215 293.508C196.489 303.751 199.629 313.665 204.012 322.782C183.855 325.759 165.644 319.923 152.05 312.938C151.862 303.446 154.464 295.571 157.37 289.781Z" fill="url(#paint5_linear_18_146)"/>
<path d="M193.021 286.524C210.506 280.031 224.124 267.633 235.304 258.82C258.86 240.28 276.743 249.866 276.743 249.866L251.078 298.384C235.046 313.478 219.015 320.556 204.037 322.783C199.655 313.642 196.514 303.727 194.24 293.508C193.678 291.141 193.279 288.821 193.021 286.524Z" fill="white"/>
<path d="M106.955 266.414L118.815 273.328C133.018 282.68 145.815 287.743 157.371 289.759C154.464 295.548 151.886 303.423 152.073 312.892C137.026 305.158 127.651 296.017 127.651 296.017C100.791 278.719 106.955 266.414 106.955 266.414Z" fill="url(#paint6_linear_18_146)"/>
<path d="M242.053 604.887C241.866 603.972 241.678 603.058 241.467 602.144L144.62 195.467L103.158 203.459L164.59 616.981C164.731 617.895 164.895 618.832 165.059 619.746L167.731 633.575C172.301 657.318 188.989 674.053 204.998 670.959L224.029 667.279C240.038 664.185 249.296 642.435 244.725 618.715L242.053 604.887ZM209.591 643.583C198.974 645.622 187.559 632.802 184.114 614.942C180.669 597.058 186.481 580.909 197.099 578.87C207.716 576.831 219.131 589.652 222.576 607.512C226.022 625.395 220.232 641.544 209.591 643.583Z" fill="#FF6161"/>
<path d="M159.786 35.9918C149.168 29.7338 136.137 39.156 138.457 51.2736L153.95 131.55C155.051 137.269 153.434 143.175 149.59 147.535L129.832 169.895C124.183 176.27 114.972 178.051 107.354 174.231L80.705 160.824C75.5017 158.199 71.8219 153.324 70.6969 147.605L55.2042 67.3288C52.8603 55.2112 37.2505 51.3204 29.7268 61.0708C11.7028 84.4153 3.42904 115.658 9.59331 147.605C20.7265 205.333 73.4157 236.342 128.941 225.631C184.466 214.92 221.803 166.52 210.67 108.791C204.506 76.8916 185.216 50.9689 159.786 35.9918Z" fill="#FF6161"/>
<path d="M152.214 37.4449C141.597 31.1869 128.565 40.6091 130.886 52.7267L146.378 133.003C147.48 138.722 145.863 144.628 142.019 148.988L122.26 171.348C116.612 177.723 107.4 179.504 99.7831 175.684L73.1337 162.277C67.9304 159.676 64.2506 154.777 63.1256 149.058L47.6329 68.8053C45.2891 56.6877 29.6792 52.797 22.1555 62.5473C4.13144 85.8918 -4.14224 117.135 2.02202 149.081C13.1552 206.81 65.8444 237.819 121.37 227.107C176.895 216.396 214.232 167.996 203.099 110.268C196.935 78.3447 177.645 52.422 152.214 37.4449Z" fill="#EB2F2F"/>
<path d="M236.03 606.056C235.842 605.142 235.655 604.228 235.444 603.314L138.574 196.613L97.1113 204.606L158.543 618.127C158.684 619.041 158.848 619.979 159.012 620.893L161.684 634.721C166.254 658.464 182.942 675.199 198.951 672.106L217.983 668.426C233.991 665.332 243.249 643.581 238.679 619.862L236.03 606.056ZM203.568 644.753C192.95 646.792 181.536 633.971 178.091 616.112C174.645 598.228 180.458 582.079 191.075 580.04C201.693 578.001 213.107 590.822 216.553 608.682C219.998 626.541 214.186 642.69 203.568 644.753Z" fill="#EB2F2F"/>
<path d="M105.386 284.322C104.94 281.72 105.714 279.095 107.425 277.103C110.753 273.235 116.519 267.962 120.691 271.524C126.902 276.822 120.105 294.963 120.105 294.963L113.214 305.487L113.12 312.213C109.393 307.854 107.143 297.119 105.386 284.322Z" fill="url(#paint7_linear_18_146)"/>
<path d="M264.414 675.2C264.414 674.919 264.437 674.614 264.508 674.333C269.195 657.176 290.97 646.84 290.97 646.84L299.525 647.684C304.165 662.989 303.345 672.294 302.478 676.419C302.454 676.536 302.408 676.653 302.384 676.747C295.329 677.239 280.774 677.38 264.414 675.2Z" fill="url(#paint8_linear_18_146)"/>
<path d="M302.382 676.748C301.984 678.131 300.929 679.186 299.616 679.443C289.538 681.365 273.6 679.373 266.92 678.365C265.443 678.154 264.389 676.748 264.389 675.225C280.772 677.381 295.327 677.24 302.382 676.748Z" fill="url(#paint9_linear_18_146)"/>
<path d="M303.203 634.98L299.242 652.348C298.961 653.614 297.953 654.551 296.758 654.645C295.304 654.762 293.218 654.786 291.156 654.458C289.281 654.153 288.015 652.231 288.39 650.192L291.203 634.746L303.203 634.98Z" fill="url(#paint10_linear_18_146)"/>
<path d="M227.334 675.152C236.78 675.059 241.702 674.051 244.233 673.066C244.233 674.004 244.21 674.965 244.14 675.949C244.093 677.004 243.296 677.848 242.335 677.824L190.442 676.512C188.778 676.465 187.864 674.52 188.591 673.02C195.411 673.699 212.732 675.293 227.334 675.152Z" fill="url(#paint11_linear_18_146)"/>
<path d="M188.613 673.02C188.684 672.88 188.73 672.763 188.824 672.622C193.535 666.317 205.442 653.778 228.599 648.691L239.662 648.551C239.662 648.551 244.42 657.2 244.209 673.067C241.654 674.052 236.755 675.083 227.31 675.153C212.731 675.294 195.41 673.7 188.613 673.02Z" fill="url(#paint12_linear_18_146)"/>
<path d="M242.054 631.815C241.913 632.635 240.155 645.151 239.475 650.003C239.311 651.151 238.468 652.042 237.413 652.136C235.514 652.323 232.467 652.464 229.819 651.878C228.389 651.55 227.381 650.143 227.405 648.549L227.78 628.885L242.054 631.815Z" fill="url(#paint13_linear_18_146)"/>
<path d="M256.257 396.309C256.257 396.309 225.506 523.977 223.584 651.598C223.561 653.919 241.35 655.981 241.749 653.825C245.897 631.957 273.297 489.499 285.906 469.67C285.906 469.67 285.625 595.229 281.969 652.301C281.875 653.731 298.024 658.372 301.399 654.739C301.399 654.739 324.158 515.797 325.072 428.583C325.119 424.083 317.009 396.309 317.009 396.309H256.257Z" fill="#1882FF"/>
<path d="M233.499 260.507C235.421 258.069 233.007 265.452 233.499 260.507V260.507Z" fill="url(#paint14_linear_18_146)"/>
<path d="M233.497 260.508C233.544 260.039 233.614 259.477 233.708 258.797C267.342 235.476 317.101 248.531 336.391 251.344C342.719 252.258 348.462 255.492 352.54 260.414C362.361 272.227 379.236 296.439 381.229 325.268C370.33 332.839 357.907 337.573 344.594 339.894C343.493 333.659 341.43 327.003 338.219 319.854C337.844 321.495 337.399 323.135 336.86 324.752C322.375 367.809 314.804 392.395 314.687 400.716C314.664 401.841 248.31 399.099 260.053 398.747C264.975 398.606 237.177 300.564 222.645 283.173C221.801 282.095 235.419 258.071 233.497 260.508Z" fill="white"/>
<path d="M305.97 215.928L308.759 251.437C308.759 251.437 288.719 257.062 274.398 246.562L285.204 214.545L305.97 215.928Z" fill="url(#paint15_linear_18_146)"/>
<path d="M283.587 175.098C283.094 175.543 262.586 213.982 262.586 213.982L284.782 225.232L309.627 191.669C309.65 191.669 291.767 167.691 283.587 175.098Z" fill="url(#paint16_linear_18_146)"/>
<path d="M291.063 183.325C296.032 184.051 298.68 189.559 299.735 192.419C300.11 193.45 299.993 194.622 299.407 195.56L287.875 213.982C287.711 214.263 287.5 214.521 287.242 214.732C285.883 215.951 281.265 219.467 277.843 214.498C274.914 210.255 272.171 206.412 269.195 204.794C267.46 203.857 265.281 204.536 264.343 206.294C262.444 209.904 258.718 217.287 256.351 224.295C255.765 226.053 256.632 227.975 258.343 228.701C262.843 230.623 271.749 234.116 279.695 235.358C281.008 235.569 282.297 235.03 283.094 233.975C286.609 229.358 296.5 216.42 299.852 213.209C302.969 210.209 308.594 211.474 311.126 212.248C312.087 212.552 313.118 212.435 313.985 211.92C316.587 210.419 321.181 206.622 317.173 199.989C316.188 198.349 316.751 196.169 318.368 195.161C321.275 193.31 324.486 189.817 321.603 184.005C317.97 176.645 307.704 177.348 301.938 171.934C299.102 169.262 296.289 166.285 292.61 165.043C291.813 164.785 290.992 164.598 290.149 164.598C286.516 164.668 281.031 170.645 280.773 174.254C280.422 179.411 286.727 182.692 291.063 183.325Z" fill="url(#paint17_linear_18_146)"/>
<path d="M295.518 219.958C295.518 219.958 300.065 207.466 305.549 208.028C311.034 208.591 315.276 214.169 308.338 220.193C299.713 227.693 295.518 219.958 295.518 219.958Z" fill="url(#paint18_linear_18_146)"/>
<path d="M340.096 316.619C347.713 296.907 345.533 272.883 345.533 272.648L343.541 272.836C343.565 273.07 345.698 296.626 338.244 315.892L340.096 316.619Z" fill="#DADADA"/>
<path opacity="0.3" d="M286.937 467.116C287.382 467.116 287.804 466.835 287.921 466.39C290.288 457.905 307.047 448.834 307.211 448.741C307.703 448.483 307.89 447.873 307.633 447.381C307.375 446.889 306.765 446.702 306.273 446.959C305.547 447.334 288.601 456.522 285.999 465.851C285.858 466.39 286.163 466.952 286.702 467.093C286.772 467.093 286.866 467.116 286.937 467.116Z" fill="white"/>
<path d="M335.01 333.986C335.127 333.423 335.01 332.837 334.682 332.368L309.931 295.055C309.743 294.797 309.462 294.633 309.134 294.633H263.804C263.054 294.633 262.375 295.031 262 295.664L240.46 332.134C240.085 332.767 239.944 333.517 240.085 334.243C248.616 360.143 256.867 385.62 256.281 398.042C271.726 410.113 298.915 407.582 317.478 402.05C318.415 385.831 326.361 360.377 335.01 333.986Z" fill="#4096FC"/>
<path d="M326.292 250.006L309.651 297.82H299.643L314.432 248.013C314.573 247.521 315.065 247.216 315.581 247.334L326.011 249.49C326.245 249.537 326.386 249.795 326.292 250.006Z" fill="#4096FC"/>
<path d="M269.288 246.654L273.366 296.531L264.132 297.656L256.256 247.92C256.21 247.568 256.467 247.216 256.819 247.193L268.655 246.115C268.983 246.091 269.265 246.326 269.288 246.654Z" fill="#4096FC"/>
<path d="M270.906 177.558C290.665 140.221 341.877 174.136 318.041 205.59C300.345 193.801 280.305 176.292 270.906 177.558Z" fill="#EB2F2F"/>
<path d="M272.195 173.527C232.232 171.487 265.14 186.3 301.516 194.223C292.469 184.613 283.422 177.441 272.195 173.527Z" fill="#FF6161"/>
<defs>
<linearGradient id="paint0_linear_18_146" x1="89.1441" y1="-25.7983" x2="144.647" y2="36.9443" gradientUnits="userSpaceOnUse">
<stop stop-color="#4F52FF"/>
<stop offset="1" stop-color="#4042E2"/>
</linearGradient>
<linearGradient id="paint1_linear_18_146" x1="363.963" y1="138.835" x2="290.361" y2="-7.16286" gradientUnits="userSpaceOnUse">
<stop stop-color="#4F52FF"/>
<stop offset="1" stop-color="#4042E2"/>
</linearGradient>
<linearGradient id="paint2_linear_18_146" x1="3587.41" y1="-1396.13" x2="3733.41" y2="-1469.73" gradientUnits="userSpaceOnUse">
<stop stop-color="#4F52FF"/>
<stop offset="1" stop-color="#4042E2"/>
</linearGradient>
<linearGradient id="paint3_linear_18_146" x1="1532.7" y1="2372.49" x2="1606.3" y2="2518.49" gradientUnits="userSpaceOnUse">
<stop stop-color="#4F52FF"/>
<stop offset="1" stop-color="#4042E2"/>
</linearGradient>
<linearGradient id="paint4_linear_18_146" x1="329.602" y1="217.439" x2="349.665" y2="413.893" gradientUnits="userSpaceOnUse">
<stop stop-color="#FEBBBA"/>
<stop offset="1" stop-color="#FF928E"/>
</linearGradient>
<linearGradient id="paint5_linear_18_146" x1="175.706" y1="295.069" x2="197.469" y2="508.161" gradientUnits="userSpaceOnUse">
<stop stop-color="#FEBBBA"/>
<stop offset="1" stop-color="#FF928E"/>
</linearGradient>
<linearGradient id="paint6_linear_18_146" x1="70.1562" y1="200.497" x2="235.628" y2="420.656" gradientUnits="userSpaceOnUse">
<stop stop-color="#FEBBBA"/>
<stop offset="1" stop-color="#FF928E"/>
</linearGradient>
<linearGradient id="paint7_linear_18_146" x1="171.101" y1="268.537" x2="251.933" y2="235.893" gradientUnits="userSpaceOnUse">
<stop stop-color="#FEBBBA"/>
<stop offset="1" stop-color="#FF928E"/>
</linearGradient>
<linearGradient id="paint8_linear_18_146" x1="264.408" y1="661.948" x2="303.155" y2="661.948" gradientUnits="userSpaceOnUse">
<stop stop-color="#4F52FF"/>
<stop offset="1" stop-color="#4042E2"/>
</linearGradient>
<linearGradient id="paint9_linear_18_146" x1="285.268" y1="577.069" x2="283.99" y2="644.674" gradientUnits="userSpaceOnUse">
<stop stop-color="#09005D"/>
<stop offset="1" stop-color="#1A0F91"/>
</linearGradient>
<linearGradient id="paint10_linear_18_146" x1="293.383" y1="618.007" x2="299.544" y2="682.542" gradientUnits="userSpaceOnUse">
<stop stop-color="#FEBBBA"/>
<stop offset="1" stop-color="#FF928E"/>
</linearGradient>
<linearGradient id="paint11_linear_18_146" x1="218.156" y1="575.798" x2="216.878" y2="643.404" gradientUnits="userSpaceOnUse">
<stop stop-color="#09005D"/>
<stop offset="1" stop-color="#1A0F91"/>
</linearGradient>
<linearGradient id="paint12_linear_18_146" x1="188.624" y1="661.86" x2="244.254" y2="661.86" gradientUnits="userSpaceOnUse">
<stop stop-color="#4F52FF"/>
<stop offset="1" stop-color="#4042E2"/>
</linearGradient>
<linearGradient id="paint13_linear_18_146" x1="233.149" y1="623.758" x2="239.311" y2="688.292" gradientUnits="userSpaceOnUse">
<stop stop-color="#FEBBBA"/>
<stop offset="1" stop-color="#FF928E"/>
</linearGradient>
<linearGradient id="paint14_linear_18_146" x1="233.763" y1="260.213" x2="234.241" y2="264.895" gradientUnits="userSpaceOnUse">
<stop stop-color="#FDF53F"/>
<stop offset="0.6645" stop-color="#E57A58"/>
<stop offset="1" stop-color="#D93C65"/>
</linearGradient>
<linearGradient id="paint15_linear_18_146" x1="284.856" y1="206.039" x2="310.727" y2="328.317" gradientUnits="userSpaceOnUse">
<stop stop-color="#FEBBBA"/>
<stop offset="1" stop-color="#FF928E"/>
</linearGradient>
<linearGradient id="paint16_linear_18_146" x1="286.269" y1="185.476" x2="287.047" y2="89.0987" gradientUnits="userSpaceOnUse">
<stop stop-color="#FEBBBA"/>
<stop offset="1" stop-color="#FF928E"/>
</linearGradient>
<linearGradient id="paint17_linear_18_146" x1="256.163" y1="199.988" x2="322.741" y2="199.988" gradientUnits="userSpaceOnUse">
<stop stop-color="#4F52FF"/>
<stop offset="1" stop-color="#4042E2"/>
</linearGradient>
<linearGradient id="paint18_linear_18_146" x1="300.334" y1="271.974" x2="303.888" y2="214.641" gradientUnits="userSpaceOnUse">
<stop stop-color="#FEBBBA"/>
<stop offset="1" stop-color="#FF928E"/>
</linearGradient>
</defs>
</svg>
